<?xml version="1.0" encoding="utf-8"?>
<!-- Generator: Adobe Illustrator 24.0.2, SVG Export Plug-In . SVG Version: 6.00 Build 0)  -->
<svg version="1.1" id="Calque_1" xmlns="http://www.w3.org/2000/svg" xmlns:xlink="http://www.w3.org/1999/xlink" x="0px" y="0px"
	 viewBox="0 0 1920 1080" style="enable-background:new 0 0 1920 1080;" xml:space="preserve">
<style type="text/css">
	.st0{fill:none;}
	.st1{fill:#424242;}
	.st2{fill:#525252;}
	.st3{fill-rule:evenodd;clip-rule:evenodd;fill:#1A1A1A;}
	.st4{fill-rule:evenodd;clip-rule:evenodd;fill:#424242;}
	.st5{fill-rule:evenodd;clip-rule:evenodd;fill:#FFFFFF;}
	.st6{fill-rule:evenodd;clip-rule:evenodd;fill:none;}
	.st7{fill-rule:evenodd;clip-rule:evenodd;fill:#525252;}
	.st8{fill-rule:evenodd;clip-rule:evenodd;}
	.st9{fill:url(#SVGID_1_);}
	.st10{fill:url(#SVGID_2_);}
</style>
<pattern  width="1317.16" height="1437.99" patternUnits="userSpaceOnUse" id="Technos_3" viewBox="0 -1547.44 1317.16 1437.99" style="overflow:visible;">
	<g>
		<rect x="0" y="-1547.44" class="st0" width="1317.16" height="1437.99"/>
		<g>
			<path class="st1" d="M1317.15-326.3c0.01,0.52,0.01,1.04,0,1.56c-0.43,19.74-16.78,35.4-36.52,34.97
				c-19.74-0.43-35.4-16.78-34.97-36.53c0-16.76,11.18-27.92,21.03-37.77c6.58-6.56,12.89-12.84,14.72-19.9
				c1.87,7.06,8.12,13.33,14.71,19.9C1305.97-354.21,1317.15-343.05,1317.15-326.3z M1267.01-326.38L1267.01-326.38l8.36-9.28
				c0.31-0.35,0.31-0.87,0-1.22l-8.01-8.18l-1.7-1.7c-1.39,1.62-2.68,3.32-3.87,5.09c-1.94,2.79-3.39,5.89-4.27,9.18l0,0
				c0,0-1.8,6.73,0.27,11.47l0.15,0.32c0.22,0.41,0.44,0.8,0.68,1.17l0,0c0,0,0.9,1.56,1.7,1.56h0.31c0.27-0.07,0.5-0.26,0.61-0.51
				c0.77-1.58,1.71-3.07,2.8-4.44L1267.01-326.38z M1281.86-299.97C1281.86-299.97,1281.86-299.97,1281.86-299.97
				c6.77-0.02,12.25-5.52,12.23-12.3c0-2.5-0.77-4.94-2.2-6.99c-0.16-0.29-0.34-0.56-0.54-0.81c-2.63-3.29-5.31-6.29-9.41-10.67
				c-3.46,4.02-6.65,7.07-9.26,10.18c-2,2.25-3.12,5.15-3.13,8.16c-0.04,6.83,5.47,12.4,12.29,12.43H1281.86z M1305.74-325.97
				c-0.05-5.53-1.78-10.9-4.97-15.42c-3.78-5.26-8.07-10.14-12.81-14.55l0,0c-2.32-2.32-4.68-4.66-6.89-7.11
				c-2,2.21-4.12,4.33-6.22,6.43c-1.37,1.31-2,3.22-1.7,5.09v0.32c0.2,0.6,0.49,1.18,0.86,1.7c0.06,0.08,0.12,0.17,0.17,0.25
				c2.06,2.34,4.23,4.57,6.51,6.68l10.87,11.28l3.27,3.39c2.69,2.78,5.12,5.79,7.26,9.01l0,0c0.26,0.44,0.67,0.78,1.15,0.93h0.24
				c0.54-0.09,0.98-0.47,1.14-0.98l0,0C1305.34-321.22,1305.72-323.59,1305.74-325.97z"/>
			<path class="st1" d="M216.86-43.46c-3.29,6.73-8.88,12.09-15.71,15.34l-0.1,0.06l-32.51,15.29L152.5-5.16l-9.76,4.65
				c-1.08,0.3-2.43,0.68-3.67,0.43c-1.24-0.26-2.32-1.14-3.2-1.84l-7.13-8.13L117.01-23.4L93.37-50.15l-0.13-0.14l-0.06-0.07
				c-4.99-5.68-8-12.85-8.58-20.37c-0.57-7.55,1.32-15.08,5.39-21.45l0.29-0.44l28.28-44.2c0.57-0.87,1.39-1.53,2.36-1.89
				c0.73-0.28,1.5-0.38,2.27-0.3c0.77,0.08,1.51,0.34,2.15,0.75c0.66,0.42,1.2,0.98,1.61,1.65c0.39,0.66,0.62,1.41,0.68,2.18
				l4.6,40.58l50.29,10.37l20.24-35.45c0.36-0.69,0.87-1.28,1.49-1.74c0.64-0.45,1.37-0.75,2.13-0.88c0.77-0.12,1.53-0.07,2.28,0.16
				c0.75,0.24,1.41,0.64,1.96,1.18c0.76,0.72,1.26,1.65,1.43,2.67l8.51,51.78l0.09,0.51C221.85-57.79,220.6-50.12,216.86-43.46z"/>
			<path class="st1" d="M961.33-432.94c-3.46-6.17-8.23-11.04-14.53-14.32c-9.67-5.19-19.83-5.68-30.05-2.37
				c-12.53,3.66-22.3,11.32-29.14,22.5c-6.35,10.01-8.74,21.59-6.01,33.57c2.29,10.12,7.82,17.83,16.69,23.22
				c9.62,5.74,19.94,6.79,30.71,4.18c13.02-3.13,22.79-10.8,29.39-22.17c1.89-2.62,3.16-5.31,4.21-8.05
				c2.56,6.55,6.96,11.97,12.91,16.15c8.48,5.86,18.03,7.78,28.15,6.94c0.99-0.21,1.98-0.42,3-0.6c1.91-0.38,3.85-0.76,5.81-1.33
				c10.13-3.19,18.63-8.81,24.88-17c9.54-11.57,12.61-24.23,9.15-39.06c-2.58-10.52-8.86-18.09-18.27-23.16
				c-10.4-5.55-21.18-5.54-32.32-2.35c-13.28,3.74-22.19,10.3-29.18,21.82c-3.02,4.93-5.12,10.03-6.22,14.98l-36.08,3.78
				c-1.36,0.14-1.99,1.65-2.25,2.33c-1.27,3.06-3.34,9.12-4.4,12.73c-0.59,1.97,0.13,3.34,2.45,3.1l21.45-2.25
				c-0.24,0.46-0.45,0.88-0.7,1.26l0,0l0,0c-0.64,1.15-1.21,2.18-1.87,3.19c-4.4,6.2-10.48,9.51-18.43,9.33
				c-8.62-0.32-15.49-7-16.53-15.91c-1.05-8.98,2.08-16.64,9.13-22.32c5.89-4.77,12.56-6.48,19.95-3.79c2.44,0.9,3.78,1.99,5.66,3.7
				c1.56,1.46,1.7,1.41,3.15,0.82l0.21-0.06c2.95-1.1,5.52-2.09,8.05-3.05c3.16-1.52,6.32-2.39,10.1-3.8
				C961.71-431.39,962.11-432.01,961.33-432.94z M875.34-419.88c0.32-0.03,0.86-0.41,1.04-0.79l1.59-3.09
				c0.18-0.34,0.04-0.65-0.39-0.61l-39.71,4.16c-0.45,0.05-0.98,0.32-1.17,0.66l-2.02,3.24c-0.18,0.38-0.05,0.58,0.4,0.54
				L875.34-419.88z M871.93-409.39c0.46-0.05,0.87-0.34,0.93-0.78l0.61-2.77c0.07-0.33-0.18-0.67-0.61-0.62l-50.72,5.32
				c-0.44,0.05-0.97,0.35-1.16,0.7l-2.02,3.24c-0.19,0.34-0.05,0.58,0.39,0.54L871.93-409.39z M848.2-399.93
				c0.19-0.38,0.6-0.75,1.04-0.79l22.23-2.33c0.46-0.05,0.71,0.25,0.76,0.71l0.07,2.7c0.04,0.43-0.39,0.8-0.71,0.83l-24.26,2.44
				c-0.44,0.05-0.59-0.26-0.4-0.61L848.2-399.93z M1025.43-421c0.43,9.62-3.64,16.94-11.91,22.72c-5.57,3.65-11.64,4.61-18.06,2.58
				c-8.37-2.73-13.5-11.07-12.41-19.95c1.33-10.71,7.32-17.98,17.42-21.38c10.31-3.57,21.1,1.61,24.25,12.4
				c0.23,0.77,0.34,1.55,0.51,2.47C1025.31-421.82,1025.35-421.43,1025.43-421z"/>
			<path class="st1" d="M781.96-222.87c15.75-7.57,28.52-6.72,28.52-6.72s-32.95,7.82-11.68,10.65c8.99,1.2,26.9,0.92,43.56-0.46
				c13.62-1.13,27.32-3.61,27.32-3.61s-4.81,2.05-8.28,4.42C827.96-209.78,763.38-213.88,781.96-222.87z M809.88-271.78
				c12.42-18.58,46.78-27.64,39.17-57.54c0,0,18.81,18.83-17.87,47.77c-29.41,23.21-6.72,36.49,0,51.6
				C814.02-245.45,801.42-259.08,809.88-271.78z M849.05-249.38c10.19,14.33-12,25.8-12,25.8s11.04-9.06,2.3-19.11
				c-29.62-34.11,32.42-49.61,32.38-49.61C832.24-269.41,839.53-262.76,849.05-249.38z M869.58-196.58
				c34.01-17.66,18.26-34.65,7.29-32.34c-1.32,0.25-2.63,0.6-3.89,1.06c0.72-1.02,1.73-1.8,2.9-2.23
				c21.69-7.64,38.4,22.51-7.01,34.43C869.15-195.93,869.38-196.24,869.58-196.58L869.58-196.58z M773.24-160.8
				c-26.51-4.28,12.78-19.29,19.96-14.23c0,0-2.3-0.14-6.26,0.71c-3.82,0.81-15.96,4.74-9.48,7.54c17.98,7.82,82.7,5.95,103.19-0.25
				c10.76-3.29,5.63-7.5,5.63-7.5C905.02-166.08,845.51-149.05,773.24-160.8z M812.07-183.8c14.37,1.63,21.69,1.42,37.51-1.59
				c3.18,1.91,6.52,3.54,9.98,4.88c-35.46,15.18-80.26-0.88-52.41-8.67C807.15-189.18,800.22-185.15,812.07-183.8z M870.78-154.79
				c24.7-4.67,26.97-10.51,26.97-10.51c-1.17,15.43-51.28,18.69-83.91,16.6c-21.45-1.38-25.62-4.85-25.62-4.81
				C808.57-150.15,842.93-149.55,870.78-154.79L870.78-154.79z M862.82-199.87c-42.93,12.56-90.7,1.03-59.98-9.17
				c0,0-7.75,5.73,4.11,6.97c15.32,1.59,27.46,1.7,48.41-2.34C857.5-202.39,860.04-200.85,862.82-199.87z"/>
			<path class="st1" d="M335.61-139.48 M374.77-153.16c9.1-0.05,14.24,5.83,13.99,11.18c-0.17,4.23-4.04,5.96-4.76,6.08
				c-0.52,0.09-0.8,0.11-0.88-0.3c-0.05-0.28,0.14-0.42,0.75-0.8c0.61-0.38,2.45-1.65,2.78-3.93c0.33-2.28-1.38-7.75-10.14-8.77
				c-4.09-0.47-7.29,0.09-9.76,1.13c0.46,1.19,0.8,2.44,0.85,3.68c0.13,2.75-1.77,4.78-3.74,6.23c-1.04,0.75-2.18,1.34-3.39,1.74
				c-0.82,0.35-1.92,0.71-2.69,0.55c-1.71-0.35-2.63-1.85-1.46-5.2c0.63-1.81,2.44-4.56,5.36-6.93c-0.68-1.37-1.41-2.77-1.79-4.04
				c-0.41-1.33-0.74-2.68-0.97-4.06c0,0-2.41,4.99-5.52,9.53c-0.17,0.27-0.36,0.53-0.53,0.79c0.6,1.41,1.08,2.92,1.15,4.43
				c0.11,2.74-1.08,4.81-3.05,6.26c-0.98,0.7-2.04,1.26-3.17,1.67c-0.61,0.28-1.89,0.72-3.69,0.85c-0.99,0.08-1.93,0.02-2.47-0.39
				c-0.72-0.53-0.82-1.23-0.44-2.15c0.31-0.79,2.71-3.52,4.72-5.91c0.55-0.66,1.08-1.34,1.56-1.96c-0.01-0.01-0.01-0.02-0.02-0.03
				c0,0,0.36-0.47,0.96-1.29c-0.74-1.59-1.67-3.22-2.11-4.72c-0.41-1.33-0.74-2.68-0.97-4.06c0,0-2.43,6.24-4.98,11.24
				c-1.96,3.87-3.18,7.23-3.18,7.23v0.05c0,0-0.76,0.14-0.92,0.38c-0.08,0.13-0.08,0.19-0.08,0.19v0.11
				c-0.67,0.98-2.15,2.89-3.63,2.89c-4.06,0-2.58-8.25-2.58-8.25s-1.18,3.05-2.53,5.67c-1.09,2.15-2.07,3.95-4.25,3.95
				c-0.62,0-1.61-0.02-2.43-0.79c-1.86-1.77-3.3-6.27-3.02-9.75c0.24-2.97,0.7-5.02,1.33-6.73c-1.12,0.62-2.4,1.33-3.71,2.1
				c-0.68,0.39-1.36,0.79-2.02,1.18c0,0,0,0,0,0c1.73,3.16,2.23,10.35-1.45,15.84c-3.63,5.42-10.39,8.72-16.99,6.89
				c-2.12-0.6-5.34-4.99-2.57-11.12c2.45-5.4,12.22-10.52,14.8-11.8c0.22-0.13,0.46-0.25,0.71-0.39
				c-5.13-4.49-17.96-10.55-19.76-19.86c-0.51-2.62,0.73-8.89,8.42-16.1c6.48-6.05,15.48-10.7,23.8-13.65
				c13.97-4.96,28.74-2.04,31.01,6.87c2.23,8.77-5.37,19.24-15.13,23c-8.69,3.36-15.87,2.83-18.83,1.86
				c-3.36-1.11-5.34-3.32-5.81-4.57c-0.19-0.49-0.52-1.31,0-1.6c0.32-0.17,0.44-0.13,1.28,0.81c0.81,0.88,4.03,3.25,10.15,2.58
				c16.08-1.8,25.76-14.3,22.7-21.01c-2.13-4.71-14.51-6.82-29.99,0.88c-18.89,9.42-19.92,17.17-20.07,20.13
				c-0.45,8.21,10.27,12.48,15.87,18.64c0,0,0,0,0,0c1.06-0.58,2.18-1.2,3.27-1.8c2.84-1.56,5.55-3.03,6.79-3.71
				c1.99-2.89,6.03-6.08,8.94-6.08c4.66,0,3.06,6.7,3.06,6.7s0.09-0.32,0.22-0.32c0.13,0,0.65-0.87,2.09-0.35
				c1.48,0.55,1.14,1.58,1.15,1.69c0.02,0.21-1.74,6.15-2.48,9.97c-0.35,1.82-0.14,3.14-0.05,3.14c0.14,0,0.44-0.46,0.71-0.96v-0.12
				c0,0,0.18-0.38,0.52-1.05c0-0.03-0.03,0.05-0.08,0.13c0.03-0.06,0.08-0.14,0.14-0.27c0.41-0.79,0.97-1.95,1.63-3.4
				c1.29-2.85,6.21-13.79,6.61-15c0.41-1.21,0.63-2.47,0.83-3c0.2-0.53,1.95-0.94,3.98-0.93c2.03,0.02,2.23,0.88,2.25,1.05
				c0.02,0.17-0.97,2.58-1.19,4.28c-0.22,1.7-0.02,2.55,0.17,3.98c0.13,0.94,0.71,2.12,1.4,3.46c2.09-3.43,5.78-10,6.14-11.84
				c0.2-1.02,0.48-2.03,0.83-3c0.2-0.53,1.95-0.94,3.98-0.93s2.23,0.88,2.25,1.05s-0.97,2.58-1.19,4.28
				c-0.22,1.7-0.02,2.55,0.17,3.98c0.16,1.23,1.12,2.86,2.04,4.73C368.49-152.43,371.61-153.15,374.77-153.16L374.77-153.16z
				 M307.16-130.41c3.05-3.32,4.31-7.53,3-12.31c-0.16,0.09-0.31,0.17-0.46,0.27c0,0-0.06,0.03-0.19,0.11
				c-0.75,0.46-1.37,0.83-1.79,1.08c-1.85,1.16-4.65,3.05-6.82,5.09c-3.57,3.37-4.31,8.02-2.44,9.1
				C300.21-126.05,304.27-127.25,307.16-130.41L307.16-130.41z M328.43-144.77c0.63-1.54,3.1-8.38,2.55-9.31
				c-0.41-0.71-2.15-0.14-3.74,1.63c-0.99,1.1-2.66,3.93-3.44,6.3c-1.56,4.72-0.88,9.51,0.22,9.79
				C325.3-136.02,327.42-142.31,328.43-144.77L328.43-144.77z M345.87-135.97c1.23-0.75,3.93-2.66,3.95-5.47
				c0-0.09-0.02-0.17-0.02-0.25c-0.63,0.82-1.21,1.56-1.71,2.19c-0.86,1.07-3.05,3.41-3.05,3.41s-0.31,0.3-0.17,0.38
				C345.06-135.6,345.45-135.75,345.87-135.97L345.87-135.97z M359.33-139.97c1.52-0.55,4.05-1.87,4.07-5.41
				c-0.01-0.58-0.11-1.15-0.3-1.7c-1.64,1.45-2.58,2.96-2.99,3.85C359.06-140.93,359.01-140.19,359.33-139.97L359.33-139.97z"/>
			<path class="st1" d="M509.75-101.48c-0.21-0.11-0.59-0.08-0.65-0.32c-0.04-0.08,0.04-0.17,0.11-0.21
				c0.3-0.17,0.72-0.11,1.05,0.02c0.25,0.11,0.65,0.29,0.61,0.55c-0.02,0.21-0.34,0.29-0.55,0.29
				C510.1-101.16,509.94-101.39,509.75-101.48L509.75-101.48z M505.05-101.43c-0.04-0.27,0.36-0.44,0.61-0.55
				c0.32-0.13,0.74-0.19,1.05-0.02c0.08,0.04,0.15,0.13,0.11,0.21c-0.08,0.23-0.46,0.19-0.67,0.3c-0.19,0.1-0.34,0.32-0.57,0.32
				C505.39-101.14,505.07-101.24,505.05-101.43z M547.42-48.06c2.11,2.36,3.03,4.09,2.95,5.66c-0.1,1.56-1.24,2.63-2.65,3.49
				c-2.84,1.71-7.1,3.01-9.69,6.13c-2.7,3.22-6.04,5.07-9.2,5.31c-3.14,0.25-6.09-1.2-7.68-4.38v-0.02
				c-0.21-0.4-0.36-0.84-0.48-1.28c-4.09,0.23-7.66-1.01-10.49-0.78c-4.19,0.23-6.82,1.24-9.2,1.26c-0.91,2.02-2.72,3.35-4.93,3.85
				c-3.05,0.7-6.88,0-10.65-1.98c-3.52-1.87-8-1.7-11.29-2.38c-1.66-0.34-3.1-0.95-3.83-2.34c-0.7-1.39-0.57-3.29,0.42-6.04
				c0.32-0.97,0.08-2.42-0.15-3.96c-0.11-0.74-0.23-1.5-0.23-2.25c0-0.82,0.13-1.62,0.53-2.36c0.86-1.62,2.25-2.3,3.52-2.76
				c1.28-0.46,2.44-0.76,3.24-1.58c0.99-1.05,1.92-2.74,3.16-3.85c-0.5-3.28,0.04-6.74,1.18-10.15c2.4-7.22,7.47-14.13,11.07-18.42
				c3.07-4.36,3.96-7.87,4.29-12.32c0.21-6.06-4.67-25.79,14.84-25.75c15.41,0.02,14.53,16.26,14.44,25.01
				c-0.06,5.73,3.1,9.62,6.36,13.71c2.89,3.43,6.68,8.44,8.86,14.17c1.77,4.69,2.46,9.87,0.7,15.06c0.27,0.1,0.53,0.23,0.78,0.38
				c0.27,0.15,0.51,0.34,0.76,0.55c1.26,1.07,1.66,2.72,2,4.27C546.41-50.27,546.74-48.82,547.42-48.06L547.42-48.06z
				 M509.75-104.19c0.69,0.17,1.7,0.46,2.48,0.84c-0.4-2.32,0.86-4.48,2.25-4.38c1.7,0.06,2.65,2.95,1.73,5.2
				c-0.15,0.36-0.53,0.65-0.74,0.88c1.28,0.44,2.09,0.78,2.4,0.93c1.5-1.81,2.06-4.99,0.82-7.69c-1.87-4.08-6.51-4.15-8.38,0.08
				C509.7-106.97,509.56-105.5,509.75-104.19z M500.95-100.61c1.49-1.09,1.31-0.9,1.12-1.05c-1.52-1.31-1.26-5.22,0.34-5.35
				c1.2-0.1,2.06,2.04,1.83,3.73c0.59-0.4,1.28-0.69,1.94-0.88c0.32-3.68-1.71-6.38-3.64-6.38
				C498.96-110.53,497.98-103.39,500.95-100.61z M499.96-98.97c-0.8,0.63-1.07,1.41-0.8,2.34c0.29,0.93,1.16,2,2.8,2.91
				c1.49,0.88,2.29,2.19,3.81,2.86c0.5,0.21,1.09,0.36,1.83,0.4c3.5,0.21,5.16-2.15,7.28-2.84c2.23-0.7,3.83-2.09,4.32-3.45
				c0.61-1.62-0.4-2.8-2-3.47c-2.15-0.93-3.1-0.99-4.3-1.77c-1.96-1.26-3.58-1.7-4.93-1.7c-2.74,0-4.42,1.87-5.31,2.7
				C502.55-100.87,501.15-99.85,499.96-98.97L499.96-98.97z M500.58-35.36c0.4-3.9-6-9.33-7.81-13.12l-3.73-6.78
				c-1.3-1.75-2.63-2.82-4.17-3.05c-1.47-0.23-2.4,0.27-3.37,1.31c-0.91,0.97-1.68,2.34-2.72,3.43c-1.49,1.24-1.77,1.18-3.73,1.89
				c-1.2,0.42-2.15,0.88-2.82,2.15c-0.51,0.95-0.4,2.32-0.17,3.81c0.23,1.5,0.57,3.1,0.11,4.55v0.04c-0.95,2.61-0.95,4.13-0.5,5.03
				c1.5,2.93,8.88,1.16,14.57,4.17C492.22-28.81,500.06-28.67,500.58-35.36L500.58-35.36z M500.33-40.29
				c7.16,4.89,15.66,2.99,21.77-1.37c0.61-2.09,1.2-4.06,1.3-5.52c0.15-2.89,0.3-5.47,0.84-7.6c0.59-2.4,1.77-4.4,4.08-5.2
				c0.44-4.02,3.56-4.02,7.29-2.38c3.6,1.62,4.95,3.05,4.34,4.97c0.19,0,0.38-0.02,0.8,0c0.99-3.22-2.72-5.33-5.85-6.63
				c0.55-2.29,0.46-4.59-0.08-6.8c-1.14-4.82-4.3-9.1-6.7-11.24c-0.44-0.02-0.4,0.36,0.5,1.24c2.21,2.04,7.07,9.37,4.44,16.17
				c-0.74-0.19-1.45-0.29-2.08-0.27c-1.01-5.54-3.33-10.13-4.49-12.3c-2.19-4.08-5.62-12.44-7.08-18.23
				c-0.86,1.22-2.36,2.27-4.25,2.86c-0.9,0.29-1.85,1.05-3.03,1.71c-2.65,1.52-5.71,1.68-8.08-0.23c-0.86-0.69-1.52-1.45-2.4-1.96
				c-0.3-0.17-0.97-0.63-1.18-0.78c-0.38,7.2-5.2,16.25-7.48,21.46c-1.58,3.75-2.51,7.77-2.63,11.71
				c-4.15-5.54-1.12-12.63,0.5-15.69c1.81-3.35,2.1-4.29,1.66-3.96c-1.64,2.67-4.19,6.91-5.18,11.27c-0.51,2.27-0.61,4.57,0.06,6.7
				c0.67,2.13,2.11,4.09,4.69,5.69c0,0,4.72,2.72,7.29,6.19c1.41,1.9,1.85,3.56,1.41,4.74c-0.48,1.28-1.83,1.7-3.18,1.7
				C498.5-42.88,499.55-41.55,500.33-40.29L500.33-40.29z M549.35-42.48c0.06-0.97-0.59-2.48-2.61-4.69
				c-1.9-2.15-1.37-6.3-3.26-7.92c-1.31-1.14-2.59-1.03-4.3-0.97c-1.47,1.68-4.91,3.73-7.31,3.1c-2.19-0.55-3.43-3.1-3.58-5.62
				c-0.06,0.04-0.13,0.06-0.19,0.1c-1.35,0.74-2.11,2.06-2.61,4.02c-0.48,1.94-0.65,4.48-0.8,7.37c-0.13,2.25-1.18,5.03-1.89,7.73
				c-0.67,2.51-1.1,4.8-0.21,6.91c1.37,2.76,3.71,3.89,6.42,3.68c2.7-0.21,5.79-1.87,8.3-4.86
				C541.5-38.69,549.18-39.28,549.35-42.48L549.35-42.48z M500.71-96.65c-0.67-0.53-0.59-1.26-0.32-1.24
				c0.46,0.06,0.53,0.67,0.82,0.93c0.38,0.36,0.88,0.84,1.47,1.31c1.18,0.93,2.76,1.85,4.74,1.85s4.29-1.14,5.69-1.94
				c0.8-0.46,1.81-1.26,2.65-1.87c0.65-0.48,0.61-1.03,1.14-0.97s0.15,0.61-0.59,1.26c-0.74,0.65-1.89,1.49-2.82,1.98
				c-1.77,0.93-3.85,2.06-6.06,2.06c-2.19,0-3.94-1.03-5.2-2.02C501.6-95.79,501.09-96.28,500.71-96.65L500.71-96.65z"/>
			<path class="st1" d="M555.58-262.56c-58.35,10.59-98.81,43.34-93.91,70.35c4.9,27.01,54.26,43.46,112.65,32.86
				c58.35-10.59,98.81-43.34,93.91-70.35C663.32-256.71,613.96-273.16,555.58-262.56 M673.94-230.74
				c5.75,31.68-38.41,66.19-98.59,77.11s-113.66-5.86-119.41-37.54c-5.75-31.68,38.41-66.19,98.59-77.11
				C614.73-279.21,668.19-262.42,673.94-230.74z M529.43-209.26c0.15-13.54-8.39-10.55-21.33-8.2l-0.3,24.9
				C519.48-194.68,529.25-194.97,529.43-209.26L529.43-209.26z M495.66-224.55l24.08-4.37c7.22-1.31,12.88-0.4,16.87,2.81
				c7.66,6.14,7.98,21.1,0.58,30.89c-6.67,8.99-15.54,9.54-29.54,12.08l-0.19,15.8l-12.5,2.27L495.66-224.55z M545-249.31
				l-0.71,59.45l12.43-2.26l0.43-34.07c10.12-1.84,14.23-3.01,16.43-1.36c2.28,1.7,1.7,4.12,1.36,32.12l12.6-2.29
				c0.37-28.95,1.72-35.32-4.17-39.04c-5.61-3.56-15.41-0.97-26.14,0.98l0.19-15.8L545-249.31L545-249.31z M627.12-226.99
				c0.15-13.54-8.32-10.56-21.33-8.2l-0.3,24.9C616.87-212.36,626.94-212.5,627.12-226.99L627.12-226.99z M593.38-242.29l24.08-4.37
				c7.22-1.31,12.88-0.4,16.87,2.81c7.66,6.14,7.98,21.1,0.58,30.89c-6.53,8.79-14.83,9.41-29.54,12.08l-0.19,15.8l-12.54,2.28
				L593.38-242.29z"/>
			<path class="st1" d="M200.39-380.04c2.96-0.6,4.86-3.49,4.26-6.44c-0.6-2.96-3.49-4.86-6.44-4.26c-2.96,0.6-4.86,3.49-4.26,6.44
				C194.55-381.34,197.44-379.44,200.39-380.04 M141.27-367.99c2.96-0.6,4.86-3.49,4.26-6.44c-0.6-2.96-3.49-4.86-6.44-4.26
				c-2.96,0.6-4.86,3.49-4.26,6.44C135.43-369.3,138.32-367.39,141.27-367.99 M195.75-412.65c20.39,6.24,36.73,22.27,43.05,43.85
				l-128.46,26.17c-2.64-22.33,6.13-43.47,22.46-57.2l-14.46-16.33l0,0c-0.07-0.07-0.14-0.15-0.2-0.23
				c-0.77-0.99-0.59-2.42,0.4-3.19c0.99-0.77,2.42-0.59,3.19,0.4l14.65,16.54c15.89-11.41,35.9-15.48,54.99-11.2l7.01-20.96l0,0
				c0.03-0.1,0.06-0.19,0.1-0.29c0.48-1.16,1.81-1.72,2.97-1.24c1.16,0.48,1.72,1.81,1.24,2.97L195.75-412.65"/>
			<g>
				<path class="st1" d="M728.9-441.9l-20.64,17.66c-12.02-13.88-30.89-21.19-50.23-17.57c-28.99,5.44-48.06,33.33-42.63,62.3
					c1.77,9.45,5.92,17.85,11.72,24.68l-21.14,18.08c-1.47-1.78-2.45-4-2.94-6.6l-12.25-65.37c-0.99-5.29,0.49-9.79,4.59-13.31
					c9.95-8.56,43.37-37.03,50.03-42.84c4.46-3.9,9.36-4.93,14.97-2.96c20.81,7.33,41.65,14.6,62.47,21.91
					C725.38-445.03,727.38-443.67,728.9-441.9z"/>
				<path class="st1" d="M687.89-406.82l-20.22,17.3l-20.18,17.26c-2.84-3.39-4.89-7.52-5.76-12.18
					c-2.71-14.43,6.81-28.32,21.24-31.02l0.29-0.06C672.75-417.19,681.96-413.59,687.89-406.82z"/>
				<path class="st1" d="M743.84-362.59c-0.75,2.26-2.15,4.29-4.22,6.09c-16.77,14.35-33.55,28.68-50.31,43.05
					c-4.52,3.87-9.45,4.68-15.03,2.65c-8.31-3-49.78-17.44-62.15-21.81c-2.58-0.91-4.62-2.3-6.15-4.14l21.14-18.08
					c0.04,0.04,0.08,0.09,0.12,0.14c12,14.05,30.99,21.48,50.46,17.83l0.58-0.12c19.14-3.8,33.88-17.44,39.95-34.66L743.84-362.59z"
					/>
				<path class="st1" d="M692.96-380.58c-3.05,8.69-10.51,15.56-20.2,17.38c-9.71,1.82-19.18-1.9-25.15-8.92
					c-0.04-0.05-0.08-0.1-0.12-0.14l20.18-17.26L692.96-380.58z"/>
				<path class="st2" d="M743.84-362.59l-25.61-9.05l-25.27-8.94l-25.29-8.94l20.22-17.3l20.37-17.42l20.64-17.66
					c1.52,1.81,2.54,4.06,3.04,6.72c4.09,21.79,12.26,65.36,12.26,65.36C744.69-367.2,744.57-364.79,743.84-362.59z M720.94-391.8
					l7.44-1.39l-0.7-3.73l-7.44,1.4l-1.39-7.44l7.44-1.4l-0.7-3.71l-7.44,1.39l-1.39-7.44l-3.73,0.7l1.39,7.44l-7.44,1.39
					l-1.39-7.44l-3.73,0.7l1.4,7.44l-7.44,1.4l0.69,3.71l7.44-1.39l1.4,7.44l-7.44,1.39l0.7,3.73l7.44-1.4l1.39,7.44l3.73-0.69
					l-1.4-7.44l7.44-1.4l1.4,7.44l3.72-0.7L720.94-391.8z"/>
				<path class="st0" d="M720.94-391.8l1.39,7.44l-3.72,0.7l-1.4-7.44l-7.44,1.4l1.4,7.44l-3.73,0.69l-1.39-7.44l-7.44,1.4
					l-0.7-3.73l7.44-1.39l-1.4-7.44l-7.44,1.39l-0.69-3.71l7.44-1.4l-1.4-7.44l3.73-0.7l1.39,7.44l7.44-1.39l-1.39-7.44l3.73-0.7
					l1.39,7.44l7.44-1.39l0.7,3.71l-7.44,1.4l1.39,7.44l7.44-1.4l0.7,3.73L720.94-391.8z M716.51-394.82l-1.39-7.44l-7.44,1.39
					l1.39,7.44L716.51-394.82z"/>
				
					<rect x="708.31" y="-401.63" transform="matrix(0.1837 -0.983 0.983 0.1837 972.392 375.2068)" class="st2" width="7.57" height="7.57"/>
				<path class="st0" d="M708.26-424.24l-20.37,17.42c-5.93-6.77-15.14-10.37-24.63-8.7l-0.29,0.06
					c-14.43,2.7-23.95,16.59-21.24,31.02c0.87,4.66,2.92,8.79,5.76,12.18l-20.37,17.43c-5.8-6.83-9.95-15.23-11.72-24.68
					c-5.43-28.97,13.64-56.86,42.63-62.3C677.37-445.43,696.24-438.12,708.26-424.24z"/>
				<path class="st0" d="M718.23-371.64c-6.07,17.22-20.81,30.86-39.95,34.66l-0.58,0.12c-19.47,3.65-38.46-3.78-50.46-17.83
					c-0.04-0.05-0.08-0.1-0.12-0.14l20.37-17.43c0.04,0.04,0.08,0.09,0.12,0.14c5.97,7.02,15.44,10.74,25.15,8.92
					c9.69-1.82,17.15-8.69,20.2-17.38L718.23-371.64z"/>
			</g>
			<g>
				<path class="st2" d="M1103.8-262.29l-14.77,51.92c-0.43,1.5-1.43,3.02-2.71,4.25l-18.06-18.61l-7.37-7.61l-5.73-5.92v-0.01
					l-13.13-13.53l18.28-4.6c0.01,0,0.01,0.01,0.01,0.01l7.92-2l35.5-8.94C1104.17-265.6,1104.22-263.78,1103.8-262.29z
					 M1078.86-243.49l-4.02-1.14l1.14-4.03l-4.03-1.15l-1.15,4.03l-4.02-1.14l-1.14,4.02l4.02,1.14l-1.15,4.03l4.03,1.15l1.14-4.03
					l4.02,1.14L1078.86-243.49z M1093.97-239.2l-4.02-1.14l1.15-4.03l-4.03-1.14l-1.14,4.03l-4.03-1.14l-1.14,4.02l4.03,1.14
					l-1.14,4.03l4.03,1.14l1.15-4.03l4.02,1.14L1093.97-239.2z"/>
				<path class="st1" d="M1086.32-206.12c-1.27,1.24-2.81,2.19-4.32,2.58l-52.35,13.17c-3.02,0.77-7.26-0.45-9.42-2.68l-37.59-38.75
					c-1.08-1.12-1.89-2.74-2.32-4.47l25.16-6.33c3.19,12.62,12.84,23.26,26.23,27.06c12.91,3.67,26.91,0.15,36.55-9.19
					L1086.32-206.12z"/>
				<path class="st1" d="M1055.16-238.26L1055.16-238.26c-4.83,4.67-11.84,6.44-18.29,4.6c-6.69-1.91-11.52-7.23-13.11-13.54
					l18.27-4.6L1055.16-238.26z"/>
				<path class="st1" d="M1068.23-258.38l10.35-2.63c-3.28-13.01-13.34-23.37-26.25-27.04c-19.99-5.69-40.89,5.95-46.57,25.95
					c-1.88,6.6-1.87,13.3-0.29,19.51l-25.16,6.33c-0.43-1.72-0.49-3.54-0.07-5.03l14.77-51.92c0.85-2.99,4.02-6.05,7.03-6.82
					l52.35-13.17c3.02-0.76,7.26,0.45,9.42,2.68l37.59,38.75c1.08,1.12,1.89,2.74,2.32,4.46L1068.23-258.38z"/>
				<path class="st1" d="M1060.3-256.4l-18.28,4.6l-18.27,4.6c-0.8-3.11-0.8-6.46,0.13-9.76c2.85-9.99,13.3-15.81,23.29-12.97
					C1053.64-268.09,1058.66-262.91,1060.3-256.4z"/>
				<g>
					<path class="st0" d="M1068.27-224.73c-9.64,9.34-23.65,12.86-36.55,9.19c-13.39-3.81-23.04-14.45-26.23-27.06l18.28-4.6
						c1.59,6.31,6.41,11.63,13.11,13.54c6.46,1.84,13.46,0.07,18.29-4.6l5.73,5.92L1068.27-224.73z"/>
					<path class="st0" d="M1078.59-261.01l-10.35,2.63l-7.93,1.99c-1.64-6.51-6.67-11.69-13.12-13.53
						c-9.99-2.84-20.45,2.98-23.29,12.97c-0.93,3.3-0.93,6.65-0.13,9.76l-18.28,4.6c-1.58-6.2-1.59-12.91,0.29-19.51
						c5.68-19.99,26.58-31.64,46.57-25.95C1065.25-284.38,1075.31-274.02,1078.59-261.01z"/>
				</g>
				<polygon class="st0" points="1078.86,-243.49 1077.71,-239.47 1073.69,-240.61 1072.54,-236.58 1068.51,-237.73 
					1069.66,-241.77 1065.63,-242.91 1066.78,-246.94 1070.8,-245.79 1071.95,-249.82 1075.98,-248.67 1074.83,-244.64 				"/>
				<polygon class="st0" points="1093.97,-239.2 1092.82,-235.18 1088.8,-236.32 1087.66,-232.29 1083.62,-233.43 1084.77,-237.47 
					1080.74,-238.61 1081.88,-242.63 1085.91,-241.49 1087.06,-245.52 1091.09,-244.38 1089.94,-240.34 				"/>
			</g>
			<g>
				<path class="st3" d="M453.65-460.69c-0.47-0.23-0.97-0.41-1.48-0.56C452.68-461.12,453.18-460.93,453.65-460.69z"/>
				<path class="st3" d="M508.43-407.95l-13.54,63.76c2.74-13.54,10.48-49.52,13.2-62.31c0.21-1.03,0.47-2.19,0.47-3.36
					C508.61-409.23,508.56-408.58,508.43-407.95z M507.8-412.76c-0.05-0.08-0.09-0.15-0.15-0.22l-24.69,7.91l-23.33,7.47
					c-0.01-0.02-0.01-0.03-0.02-0.05l23.34-7.46l24.72-7.9C507.71-412.94,507.76-412.84,507.8-412.76z"/>
				<path class="st4" d="M494.45-342.49c-0.76,2.21-2.52,3.95-4.83,4.67c-12.86,4.01-51.54,16.08-64.4,20.09
					c-2.59,0.81-5.46,0.2-7.5-1.6c-10.12-8.88-40.57-35.62-50.69-44.51c-2.05-1.8-2.97-4.51-2.42-7.12l0.14-0.61
					c-0.34,1.56-0.45,2.75,0.2,4.16l24.66-7.88c5.02,16.54,18.65,29.93,36.74,33.77c17.84,3.78,35.48-2.68,46.81-15.39l19.68,16.98
					C493.5-340.62,494.08-341.52,494.45-342.49z"/>
				<path class="st4" d="M507.67-413.01l-24.72,7.9c-5.37-15.85-18.72-28.55-36.26-32.27c-26.45-5.62-52.49,11.3-58.1,37.76
					c-1.78,8.36-1.3,16.68,1.02,24.33l-24.66,7.88c-0.65-1.41-0.54-2.6-0.2-4.16l13.57-63.98c0.56-2.61,2.5-4.72,5.1-5.53
					c12.85-4.01,51.54-16.08,64.39-20.09c1.27-0.39,2.59-0.45,3.85-0.21c0.17,0.04,0.34,0.08,0.51,0.13
					c0.23,0.06,0.45,0.13,0.66,0.21c0.28,0.1,0.55,0.22,0.82,0.34c0.16,0.08,0.31,0.16,0.46,0.25c0.43,0.25,0.84,0.54,1.21,0.87
					c10.12,8.89,40.57,35.63,50.69,44.51C506.69-414.47,507.25-413.78,507.67-413.01z"/>
				<path id="path6_4_" class="st5" d="M482.96-405.07l-23.33,7.47c-0.01-0.02-0.01-0.03-0.02-0.05l23.34-7.46
					C482.96-405.1,482.96-405.09,482.96-405.07z"/>
				<path class="st6" d="M482.95-405.11l-23.34,7.46c-2.77-7.75-9.38-13.94-18-15.77c-13.23-2.81-26.25,5.65-29.06,18.88
					c-0.86,4.05-0.66,8.07,0.4,11.79l-23.34,7.46c-2.32-7.65-2.8-15.97-1.02-24.33c5.61-26.46,31.65-43.38,58.1-37.76
					C464.23-433.66,477.58-420.96,482.95-405.11z"/>
				<path class="st6" d="M473.16-356.92v0.01c-11.33,12.71-28.97,19.17-46.81,15.39c-18.09-3.84-31.72-17.23-36.74-33.77l23.34-7.46
					c2.42,8.45,9.31,15.32,18.48,17.27c8.8,1.86,17.5-1.25,23.18-7.45L473.16-356.92z"/>
				<path class="st4" d="M435.13-389.75l19.48,16.82c-5.68,6.2-14.38,9.31-23.18,7.45c-9.17-1.95-16.06-8.82-18.48-17.27l46.66-14.9
					c0.01,0.02,0.01,0.03,0.02,0.05L435.13-389.75z"/>
				<path class="st4" d="M459.61-397.65l-46.66,14.9c-1.06-3.72-1.26-7.74-0.4-11.79c2.81-13.23,15.83-21.69,29.06-18.88
					C450.23-411.59,456.84-405.4,459.61-397.65z"/>
				<path class="st7" d="M460.49-384.36c-0.94,4.43-3.02,8.32-5.88,11.44l-19.48-16.82l24.5-7.85
					C461.08-393.48,461.46-388.93,460.49-384.36z"/>
				<path class="st7" d="M484.45-379.28c-1.83,8.61-5.82,16.22-11.29,22.36l-18.55-16.01c2.85-3.11,4.94-7.01,5.88-11.44
					c0.97-4.57,0.59-9.12-0.86-13.23l23.33-7.47C485.68-397.03,486.34-388.18,484.45-379.28z"/>
				<path class="st7" d="M508.56-409.86c0,1.17-0.26,2.33-0.47,3.36c-2.72,12.79-10.46,48.77-13.2,62.31
					c-0.05,0.22-0.09,0.43-0.13,0.63l-0.01,0.06c-0.02,0.09-0.04,0.17-0.06,0.25c-0.01,0.06-0.03,0.11-0.04,0.16
					c-0.03,0.1-0.06,0.2-0.1,0.3c-0.03,0.1-0.06,0.2-0.1,0.3c-0.37,0.97-0.95,1.87-1.61,2.56l-19.68-16.98v-0.01
					c5.47-6.14,9.46-13.75,11.29-22.36c1.89-8.9,1.23-17.75-1.49-25.79l24.69-7.91c0.06,0.07,0.1,0.14,0.15,0.22
					c0.01,0.01,0.02,0.03,0.02,0.04c0.4,0.81,0.65,1.68,0.73,2.57C508.55-410.05,508.56-409.95,508.56-409.86z"/>
				<path class="st8" d="M508.55-410.14c-0.08-0.89-0.33-1.76-0.73-2.57C508.32-411.9,508.52-411.02,508.55-410.14z"/>
			</g>
			<path class="st1" d="M1219.83-468.95l12.21,102.39l-37.12,21.62l-42.68-4.89l-29.94-98.67L1219.83-468.95z M1144.68-431.74
				l3.9,11.44l30.52-6.4l-1.47,1.01l-25.4,17.43l3.3,11.31l0.04-0.04l0.12,0.6l44.88-9.27l2.48,16.82l-13.88,7.25l-14.94-0.61
				l-3.03-10.15l-13.62,2.85l5.64,18.69l27.02,2.19l23.74-12.69l-4.62-38.45l-28.65,6.01l0.07-0.04l26.56-18.59l-1.29-12.22
				L1144.68-431.74z"/>
			<path class="st1" d="M1241.27-210.64l-24.89,99l-42.1,6.86l-37.61-19.59l7.18-101.83L1241.27-210.64z M1219.83-192.71
				l-61.16-9.76l-2.64,37.35l43.05,6.87l-4.23,16.28l-14.89,1.58l-13.61-6.13l0.69-10.28l-10.86-1.73l-1.52,19.08l23.45,10.7
				l0.27,0.04l-0.23,1.45l26.51-2.95l9.67-37.93l-45.54-7.27l0.98-12.98l47.03,7.51L1219.83-192.71z"/>
			<g>
				<path class="st1" d="M5.63-258.43c0.55-2.56,1.84-3.57,4.09-3.76c5.39-0.49,8.55,1.61,9.29,5.34l4.93,24.7l14.96-20.43
					c2.27-3.08,5.95-3.72,10.66-1.06c1.97,1.09,2.73,2.55,2.18,5.11l-5.63,26.22l-6.65-1.43L45.09-250l-15.21,20.68
					c-1.81,2.51-3.62,3.15-6.88,2.45c-3.26-0.7-4.71-2.04-5.33-5.07l-5.38-25.11l-5.64,26.26L0-232.21L5.63-258.43z"/>
				<path class="st1" d="M53.02-227.57c-0.66,3.31,2.91,7.08,9.48,8.56l14.14,3.04l-0.37,1.74c-0.15,0.72-0.1,2.95-4.48,2.49
					c-0.05-0.01-21-4.51-21.04-4.52l-0.96,4.47l21,4.51c3.35,0.62,10.85,0.91,12.05-4.89c0.02-0.1,5.1-23.58,5.07-23.59l-6.66-1.43
					l-3.7,17.23c-0.12-0.03-12.61-2.68-14.46-3.11c-3.63-0.84-3.55-2.75-3.32-3.52l3.11-14.47l-6.65-1.43
					C56.34-242.32,53.09-227.88,53.02-227.57z"/>
				<path class="st1" d="M89.38-217.65l18.35,3.94c0.26,0.05,0.46,0.05,0.71,0.11c1.3,0.19,2.33,0.05,3.02-0.33
					c0.75-0.37,1.2-0.9,1.3-1.37l0.83-3.88c0.09-0.43,0.05-0.84-0.25-1.3c-0.48-0.9-1.29-1.48-3.36-2.1
					c-0.18-0.08-0.44-0.14-0.69-0.19l-6.91-1.48c-0.64-0.14-1.27-0.32-1.9-0.5c-5.56-1.82-8.4-5.1-7.76-8.09l0.83-3.88
					c0.73-3.41,2.88-5,7.11-5.39c1.36-0.11,2.8,0.02,5.49,0.6l18.67,4.01l-0.95,4.43l-18.99-4.08c-0.19-0.04-0.46-0.05-0.65-0.09
					c-2.41-0.3-3.2-0.06-3.81,1.23c-0.11,0.2-0.15,0.37-0.18,0.54l-0.65,3.03c-0.05,0.21-0.08,0.38-0.06,0.61
					c-0.06,1.86,1.04,2.94,3.73,3.52l8.06,1.73c1.98,0.43,3.96,1.21,5.48,2.2c2.88,1.87,4.09,4,3.68,5.92l-1.04,4.86
					c-0.5,2.35-2.3,3.83-5.46,4.54c-1.9,0.44-4.18,0.44-6.41-0.04l-19.12-4.11L89.38-217.65z"/>
				<path class="st1" d="M166.05-228.66l6.65,1.43l-4.93,22.94c-0.5,2.34,0.76,3.64,4.66,4.48l17.46,3.75l-0.95,4.43l-17.33-3.72
					c-0.64-0.14-1.27-0.32-1.9-0.5c-6.73-1.98-9.57-5.27-8.59-9.83L166.05-228.66z"/>
				<path class="st1" d="M128.59-205.05c1.33,0.69,2.57,1.13,3.79,1.4l7.11,1.53l5.41,0.81l4.27,5.92l7.72,1.66l-5.28-7.32
					c3-0.54,4.58-2.03,5.28-5.29l3.39-15.81c0.86-4.02-1.43-7.06-6.84-9.02c-0.62-0.22-1.19-0.39-1.83-0.53l-12.62-2.71
					c-0.58-0.12-1.23-0.22-1.82-0.26c-5.74-0.43-9.08,1.4-9.94,5.42l-3.39,15.81C123.04-209.77,124.61-207.11,128.59-205.05z
					 M134.32-227.33c0.43-2.01,2.63-2.88,5.58-2.24l10.06,2.16c2.56,0.55,4.08,1.9,4.1,3.7c0.02,0.23-0.03,0.44-0.06,0.61
					l-3.26,15.17c-0.05,0.21-0.09,0.43-0.2,0.63c-0.41,0.89-1.15,1.49-2.14,1.77l-3.9-5.41l-7.72-1.66l4.47,6.2l-6.04-1.3
					c-2.63-0.56-4.14-1.96-4.13-3.88c-0.01-0.27-0.03-0.5,0.02-0.71L134.32-227.33z"/>
				<path class="st1" d="M200.1-232.08c-1.4-1.52-2.83-3.15-4.37-4.59c-0.8-0.75-2.3-1.52-3.19-2.14c-1.26-0.88-4.19-2.11-4.76-3.33
					c-1.07-2.33-1.59-4.99-2.13-7.63c-0.55-2.65-1.35-5.48-1.89-8.19c-0.27-1.34-0.29-2.5-0.65-3.79
					c-2.2-7.99-6.39-15.19-12.18-20.86c-1.9-1.86-4.05-3.66-6.57-5.06c-1.43-0.79-3.32-0.93-4.87-1.65
					c-0.35-0.07-0.7-0.15-1.05-0.22c-0.86-0.47-1.42-1.6-2.07-2.27c-1.35-1.38-2.75-2.46-4.45-3.63c-0.64-0.44-2.37-1.54-3.15-1.16
					c-0.42,0.05-0.64,0.17-0.85,0.55c-0.52,0.51-0.36,1.51-0.22,2.14c0.4,1.78,1.27,3,1.94,4.55c0.61,1.4,1.37,3,1.71,4.5
					c0.7,3.13,0.6,6.42,1.24,9.51c0.25,1.19,0.67,2.57,1.16,3.65c0.4,0.88,1.27,1.67,1.36,2.72c0.42,1.13-1.87,4.19-2.45,5.19
					c-2.23,3.87-3.2,9.76-2.46,13.7c0.29,1.56,0.51,3.35,2.04,4.09c0.14-0.07,0.04-0.04,0.26-0.07c0.94-2.71,1.64-5.37,3.04-7.37
					c0.88-1.25,2.19-1.96,3.19-2.96c0.48,0.44,0.28,1.36,0.41,2.03c0.34,1.74,0.68,3.62,1.16,5.36c1,3.64,2.2,7.19,3.7,10.52
					c0.53,1.18,1.31,2.51,2.02,3.6c0.3,0.46,0.74,0.76,0.94,1.3c0.04,0.01,0.08,0.02,0.12,0.03c-0.01,0.04-0.02,0.08-0.03,0.12
					c-1.45-0.87-2.06-2.65-3.07-3.82c-1.95-2.26-4.14-5.46-5.15-8.28c-0.4-1.54-0.8-3.09-1.19-4.63c0.01-0.04,0.02-0.08,0.02-0.12
					c-0.37,0.33-0.37,0.77-0.65,1.32c-1.21,2.42-1.32,5.43-3.81,5.87c-2.86,0.51-4.17-2.69-4.7-4.17
					c-1.73-4.81-0.89-12.07,2.16-17.41c0.68-1.19,1.05-2.74,1.99-3.59c0.08-0.93-0.6-1.34-0.9-2.02c-0.49-1.1-0.86-2.35-1.19-3.54
					c-0.64-2.34-0.84-4.97-1.2-7.43c-0.14-1-0.03-1.89-0.24-2.85c-0.32-1.46-1.13-3.02-1.73-4.39c-0.85-1.95-3.56-5.92-1.48-8.95
					c3.29-4.8,9.91,0.81,12.43,3.28c0.63,0.62,1.24,1.75,1.95,2.24c1.26,0.35,2.52,0.7,3.79,1.06c2.26,1.08,4.42,1.99,6.06,3.49
					c7.7,7.04,12.25,13.5,15.67,23.31c0.71,2.04,0.86,4.16,1.31,6.36c0.66,3.23,1.43,6.61,2.29,9.73c0.41,1.49,0.59,3.06,1.24,4.4
					c0.28,0.57,1.26,0.94,1.78,1.35c1.53,1.24,3.4,2.33,4.8,3.71c2.53,2.47,4.89,5.3,7.02,8.07c0.81,1.06,1.2,2.44,1.91,3.57
					c-0.03,0.16-0.07,0.31-0.1,0.47c-0.86,0.06-1.73,0.12-2.59,0.17c-1.9,0.08-3.44-0.38-5.29-0.28c-1.1,0.06-2.51,0.18-3.66,0.06
					c0.03,0.05,0.06,0.09,0.09,0.14c0.27,1.99,3.49,4.3,4.84,5.78c1.69,1.86,3.19,3.98,4.25,6.26c0.4,0.61,0.79,1.22,1.19,1.84
					c0.24,0.57,0.19,1.25,0.46,1.8c-0.01,0.04-0.02,0.08-0.02,0.12c-0.66-0.4-0.89-1.11-1.35-1.63c-0.93-1.05-1.87-2.2-2.85-3.16
					c-1.66-1.64-3.75-2.81-5.49-4.46c-0.98-0.93-1.88-2.01-2.76-3.02c-0.8-0.93-1.58-2.54-2-3.71c-0.22-0.61-0.14-1.28-0.46-1.8
					c0.33-0.92,1.54-0.67,2.37-0.83c2.91-0.55,6.12-0.26,10.18,0.73C203.06-229.5,200.8-231.32,200.1-232.08z"/>
				<path class="st4" d="M161.66-282.41c0.17,0.42,0.13,0.81,0.36,1.17c-0.26,1.24-0.77,1.98-1.6,2.33
					c-0.05,0.03-0.09,0.06-0.14,0.09c-0.21-0.9-0.43-1.79-0.64-2.69c-0.35-0.83-0.95-1.52-1.18-2.44c-0.04-0.01-0.08-0.02-0.12-0.03
					c0.01-0.04,0.02-0.08,0.02-0.12c0.67,0,1.29,0.02,2.14,0.22C160.85-283.38,161.43-282.97,161.66-282.41z"/>
				<path class="st4" d="M199-199.37c2.59,0.56,4.48,3.03,3.85,5.95c-0.63,2.93-3.37,4.4-5.95,3.85c-2.59-0.56-4.48-3.03-3.85-5.95
					C193.67-198.45,196.41-199.93,199-199.37z M198.78-198.35c-2.13-0.46-4.16,0.84-4.64,3.07c-0.48,2.22,0.84,4.24,2.97,4.7
					c2.1,0.45,4.16-0.84,4.64-3.07C202.22-195.88,200.88-197.9,198.78-198.35z M197.72-194.12l-0.88-0.19l-0.52,2.42l-0.94-0.2
					l1.2-5.59l2.18,0.47c1.39,0.3,2,0.92,1.76,2.06c-0.22,1.02-0.96,1.3-1.84,1.2l1.08,2.8l-1.1-0.24L197.72-194.12z M198.02-194.88
					c0.71,0.15,1.33,0.22,1.5-0.57c0.14-0.65-0.52-0.9-1.08-1.02l-1.08-0.23l-0.35,1.61L198.02-194.88z"/>
			</g>
		</g>
		<g>
			<path class="st1" d="M881.5-632.91c-30.01-5.05-55.8-0.46-57.6,10.26L821.95-611c-1.8,10.72,21.06,23.5,51.07,28.55
				s55.8,0.46,57.6-10.26l1.96-11.64C934.38-615.08,911.51-627.86,881.5-632.91z M871.71-574.69c-15.65-2.63-29.77-7.33-40.01-13.04
				c-4.74-2.64-8.99-5.7-12.13-9.17l-4.16,24.72c-1.8,10.72,21.06,23.5,51.07,28.55s55.8,0.46,57.6-10.26l4.16-24.72
				c-4.09,2.23-9.11,3.75-14.46,4.7C902.24-571.88,887.36-572.06,871.71-574.69z M809.54-537.26c-1.8,10.72,21.06,23.5,51.07,28.55
				c30.01,5.05,55.8,0.46,57.6-10.26l3.51-20.84c-4.09,2.23-9.11,3.75-14.46,4.7c-11.54,2.05-26.43,1.86-42.07-0.77
				s-29.77-7.33-40.01-13.04c-4.74-2.64-8.99-5.7-12.13-9.17L809.54-537.26z"/>
			<path class="st1" d="M292.92-558.95c-1.73,0.76-2.86,2.48-2.89,4.37c-0.03,1.88,1.03,3.62,2.74,4.46l43.91,21.19
				c2.99,1.45,6.48,1.51,9.51,0.16l44.6-19.71c1.73-0.76,2.86-2.46,2.89-4.37c0.03-1.9-1.03-3.64-2.74-4.46l-43.91-21.19
				c-2.99-1.45-6.48-1.51-9.51-0.16L292.92-558.95z M379.82-536.56l-31.01,13.7c-4.77,2.11-10.24,2.02-14.94-0.25l-30.53-14.73
				l-10.85,4.8c-1.73,0.76-2.86,2.48-2.89,4.37c-0.03,1.88,1.03,3.62,2.74,4.46l43.91,21.19c2.99,1.45,6.48,1.51,9.51,0.16
				l44.6-19.71c1.73-0.76,2.86-2.46,2.89-4.37c0.03-1.9-1.03-3.64-2.74-4.46L379.82-536.56L379.82-536.56z M348.38-496.95
				c-4.77,2.11-10.24,2.02-14.94-0.25l-30.53-14.73l-10.85,4.8c-1.73,0.76-2.86,2.48-2.89,4.37c-0.03,1.88,1.03,3.62,2.74,4.46
				l43.91,21.19c2.99,1.45,6.48,1.51,9.51,0.16l44.6-19.71c1.73-0.76,2.86-2.46,2.89-4.37c0.03-1.9-1.03-3.64-2.74-4.46l-10.69-5.16
				L348.38-496.95L348.38-496.95z"/>
			<path class="st1" d="M1042.14-607.3l3.57-24.59l14.92,19.87L1042.14-607.3L1042.14-607.3z M1091.81-661.77l9.35,68.88
				l-36.65,34.66l-48.78-12.86l-24.79-64.94l45.82-30.92L1091.81-661.77z M1039.83-654.95l-13.47,78.99l11.82-3.02l2.31-17.49
				l26.84-6.85l10.41,14.25l11.79-3.01L1039.83-654.95z"/>
			<path class="st1" d="M1317.15-1045.29c0.01,0.52,0.01,1.04,0,1.56c-0.43,19.74-16.78,35.4-36.52,34.97s-35.4-16.78-34.97-36.53
				c0-16.76,11.18-27.92,21.03-37.77c6.58-6.56,12.89-12.84,14.72-19.9c1.87,7.06,8.12,13.33,14.71,19.9
				C1305.97-1073.21,1317.15-1062.05,1317.15-1045.29z M1267.01-1045.37L1267.01-1045.37l8.36-9.28c0.31-0.35,0.31-0.87,0-1.22
				l-8.01-8.18l-1.7-1.7c-1.39,1.62-2.68,3.32-3.87,5.09c-1.94,2.79-3.39,5.89-4.27,9.18l0,0c0,0-1.8,6.73,0.27,11.47l0.15,0.32
				c0.22,0.41,0.44,0.8,0.68,1.17l0,0c0,0,0.9,1.56,1.7,1.56h0.31c0.27-0.07,0.5-0.26,0.61-0.51c0.77-1.58,1.71-3.07,2.8-4.44
				L1267.01-1045.37z M1281.86-1018.96C1281.86-1018.96,1281.86-1018.96,1281.86-1018.96c6.77-0.02,12.25-5.52,12.23-12.3
				c0-2.5-0.77-4.94-2.2-6.99c-0.16-0.29-0.34-0.56-0.54-0.81c-2.63-3.29-5.31-6.29-9.41-10.67c-3.46,4.02-6.65,7.07-9.26,10.18
				c-2,2.25-3.12,5.15-3.13,8.16c-0.04,6.83,5.47,12.4,12.29,12.43H1281.86z M1305.74-1044.96c-0.05-5.53-1.78-10.9-4.97-15.42
				c-3.78-5.26-8.07-10.14-12.81-14.55l0,0c-2.32-2.32-4.68-4.66-6.89-7.11c-2,2.21-4.12,4.33-6.22,6.43c-1.37,1.31-2,3.22-1.7,5.09
				v0.32c0.2,0.6,0.49,1.18,0.86,1.7c0.06,0.08,0.12,0.17,0.17,0.25c2.06,2.34,4.23,4.57,6.51,6.68l10.87,11.28l3.27,3.39
				c2.69,2.78,5.12,5.79,7.26,9.01l0,0c0.26,0.44,0.67,0.78,1.15,0.93h0.24c0.54-0.09,0.98-0.47,1.14-0.98l0,0
				C1305.34-1040.22,1305.72-1042.58,1305.74-1044.96z"/>
			<path class="st1" d="M1194.94-738.32c-6.28,2.38-11.28,7.77-12.86,14.81c-1.57,7.04,0.66,14.05,5.33,18.88
				c-6.28,2.38-11.28,7.77-12.86,14.81c-2.49,11.15,4.65,22.19,15.75,24.67c11.22,2.51,22.51-4.51,25.03-15.79l4.15-18.56
				c2.85,4.05,7.16,7.1,12.38,8.26l0.44,0.1c11.13,2.49,22.16-4.52,24.65-15.64c1.57-7.04-0.66-14.05-5.33-18.88
				c6.28-2.38,11.28-7.77,12.86-14.81c2.49-11.13-4.52-22.16-15.64-24.65l-34.57-7.73c-11.13-2.49-22.16,4.52-24.65,15.64
				C1188.04-750.16,1190.27-743.15,1194.94-738.32z M1213.19-702.34l-13.98-3.13c-0.03-0.01-0.06-0.01-0.09-0.02
				c-7.43-1.71-12.1-9.1-10.43-16.55c1.67-7.48,9.09-12.19,16.57-10.52l13.98,3.13L1213.19-702.34z M1239.39-724.93l0.44,0.1
				c7.48,1.67,12.19,9.09,10.52,16.57s-9.09,12.19-16.57,10.52l-0.44-0.1c-7.48-1.67-12.19-9.09-10.52-16.57
				C1224.48-721.89,1231.9-726.6,1239.39-724.93z M1211.71-695.74l-2.98,13.33c-1.69,7.57-9.32,12.37-16.95,10.66
				c-7.51-1.68-12.29-9.14-10.63-16.6c1.67-7.45,9.04-12.15,16.49-10.54c0.03,0.01,0.06,0.01,0.09,0.02L1211.71-695.74z
				 M1226.77-763.12l-6.06,27.09l-13.98-3.13c-7.48-1.67-12.19-9.09-10.52-16.57c1.67-7.48,9.09-12.19,16.57-10.52L1226.77-763.12z
				 M1233.37-761.65l13.98,3.13c7.48,1.67,12.19,9.09,10.52,16.57c-1.67,7.48-9.09,12.19-16.57,10.52l-13.98-3.13L1233.37-761.65z"
				/>
			<path class="st1" d="M707.68-598.92c5.28,2.77,7.32,9.29,4.55,14.57l-47.81,91.21c-2.77,5.28-9.29,7.31-14.57,4.55l-91.64-48.03
				c-5.28-2.77-7.32-9.29-4.55-14.57l32.93-62.84l23.8,12.49c-0.54,5.76,3.3,13.27,11.67,13.99l13.71,43.91
				c-6.96,5.73-6.01,16.92,2.23,21.25c6.28,3.29,14.04,0.87,17.33-5.41c3.24-6.16,1.06-16.97-9.37-18.62l-13.58-43.5l21.71,11.36
				c-1.23,13.89,17.65,19.5,24.16,7.09c6.32-12.04-8.08-24.31-18.98-16.29l-23.27-12.19c0.32-10.64-11.72-17.04-20.36-10.76
				l-24.14-12.65l9.99-19.04c2.77-5.28,9.29-7.31,14.57-4.55L707.68-598.92L707.68-598.92z"/>
			<path class="st1" d="M216.86-762.45c-3.29,6.73-8.88,12.09-15.71,15.34l-0.1,0.06l-32.51,15.29l-16.05,7.62l-9.76,4.65
				c-1.08,0.3-2.43,0.68-3.67,0.43c-1.24-0.26-2.32-1.14-3.2-1.84l-7.13-8.13l-11.72-13.34l-23.65-26.75l-0.13-0.14l-0.06-0.07
				c-4.99-5.68-8-12.85-8.58-20.37c-0.57-7.55,1.32-15.08,5.39-21.45l0.29-0.44l28.28-44.2c0.57-0.87,1.39-1.53,2.36-1.89
				c0.73-0.28,1.5-0.38,2.27-0.3c0.77,0.08,1.51,0.34,2.15,0.75c0.66,0.42,1.2,0.98,1.61,1.65c0.39,0.66,0.62,1.41,0.68,2.18
				l4.6,40.58l50.29,10.37l20.24-35.45c0.36-0.69,0.87-1.28,1.49-1.74c0.64-0.45,1.37-0.75,2.13-0.88c0.77-0.12,1.53-0.07,2.28,0.16
				c0.75,0.24,1.41,0.64,1.96,1.18c0.76,0.72,1.26,1.65,1.43,2.67l8.51,51.78l0.09,0.51C221.85-776.78,220.6-769.11,216.86-762.45z"
				/>
			<path class="st1" d="M961.33-1151.93c-3.46-6.17-8.23-11.04-14.53-14.32c-9.67-5.19-19.83-5.68-30.05-2.37
				c-12.53,3.66-22.3,11.32-29.14,22.5c-6.35,10.01-8.74,21.59-6.01,33.57c2.29,10.12,7.82,17.83,16.69,23.22
				c9.62,5.74,19.94,6.79,30.71,4.18c13.02-3.13,22.79-10.8,29.39-22.17c1.89-2.62,3.16-5.31,4.21-8.05
				c2.56,6.55,6.96,11.97,12.91,16.15c8.48,5.86,18.03,7.78,28.15,6.94c0.99-0.21,1.98-0.42,3-0.6c1.91-0.38,3.85-0.76,5.81-1.33
				c10.13-3.19,18.63-8.81,24.88-17.01c9.54-11.57,12.61-24.23,9.15-39.06c-2.58-10.52-8.86-18.09-18.27-23.16
				c-10.4-5.55-21.18-5.54-32.32-2.35c-13.28,3.74-22.19,10.3-29.18,21.82c-3.02,4.93-5.12,10.03-6.22,14.98l-36.08,3.78
				c-1.36,0.14-1.99,1.65-2.25,2.33c-1.27,3.06-3.34,9.12-4.4,12.73c-0.59,1.97,0.13,3.34,2.45,3.1l21.45-2.25
				c-0.24,0.46-0.45,0.88-0.7,1.26l0,0l0,0c-0.64,1.15-1.21,2.18-1.87,3.19c-4.4,6.2-10.48,9.51-18.43,9.33
				c-8.62-0.32-15.49-7-16.53-15.91c-1.05-8.98,2.08-16.64,9.13-22.32c5.89-4.77,12.56-6.48,19.95-3.79c2.44,0.9,3.78,1.99,5.66,3.7
				c1.56,1.46,1.7,1.41,3.15,0.82l0.21-0.06c2.95-1.1,5.52-2.09,8.05-3.05c3.16-1.52,6.32-2.39,10.1-3.8
				C961.71-1150.38,962.11-1151,961.33-1151.93z M875.34-1138.88c0.32-0.03,0.86-0.41,1.04-0.79l1.59-3.09
				c0.18-0.34,0.04-0.65-0.39-0.61l-39.71,4.16c-0.45,0.05-0.98,0.32-1.17,0.66l-2.02,3.24c-0.18,0.38-0.05,0.58,0.4,0.54
				L875.34-1138.88z M871.93-1128.38c0.46-0.05,0.87-0.34,0.93-0.78l0.61-2.77c0.07-0.33-0.18-0.67-0.61-0.62l-50.72,5.32
				c-0.44,0.05-0.97,0.35-1.16,0.7l-2.02,3.24c-0.19,0.34-0.05,0.58,0.39,0.54L871.93-1128.38z M848.2-1118.93
				c0.19-0.38,0.6-0.75,1.04-0.79l22.23-2.33c0.46-0.05,0.71,0.25,0.76,0.71l0.07,2.7c0.04,0.43-0.39,0.8-0.71,0.83l-24.26,2.44
				c-0.44,0.05-0.59-0.26-0.4-0.61L848.2-1118.93z M1025.43-1140c0.43,9.62-3.64,16.94-11.91,22.72
				c-5.57,3.65-11.64,4.61-18.06,2.58c-8.37-2.73-13.5-11.07-12.41-19.95c1.33-10.71,7.32-17.98,17.42-21.38
				c10.31-3.57,21.1,1.61,24.25,12.4c0.23,0.77,0.34,1.55,0.51,2.47C1025.31-1140.81,1025.35-1140.42,1025.43-1140z"/>
			<path class="st1" d="M781.96-941.87c15.75-7.57,28.52-6.72,28.52-6.72s-32.95,7.82-11.68,10.65c8.99,1.2,26.9,0.92,43.56-0.46
				c13.62-1.13,27.32-3.61,27.32-3.61s-4.81,2.05-8.28,4.42C827.96-928.77,763.38-932.88,781.96-941.87z M809.88-990.77
				c12.42-18.58,46.78-27.64,39.17-57.54c0,0,18.81,18.83-17.87,47.77c-29.41,23.21-6.72,36.49,0,51.6
				C814.02-964.44,801.42-978.07,809.88-990.77z M849.05-968.37c10.19,14.33-12,25.8-12,25.8s11.04-9.06,2.3-19.11
				c-29.62-34.11,32.42-49.61,32.38-49.61C832.24-988.4,839.53-981.75,849.05-968.37z M869.58-915.57
				c34.01-17.66,18.26-34.65,7.29-32.34c-1.32,0.25-2.63,0.6-3.89,1.06c0.72-1.02,1.73-1.8,2.9-2.23
				c21.69-7.64,38.4,22.51-7.01,34.43C869.15-914.93,869.38-915.24,869.58-915.57L869.58-915.57z M773.24-879.8
				c-26.51-4.28,12.78-19.29,19.96-14.23c0,0-2.3-0.14-6.26,0.71c-3.82,0.81-15.96,4.74-9.48,7.54c17.98,7.82,82.7,5.95,103.19-0.25
				c10.76-3.29,5.63-7.5,5.63-7.5C905.02-885.07,845.51-868.05,773.24-879.8z M812.07-902.8c14.37,1.63,21.69,1.42,37.51-1.59
				c3.18,1.91,6.52,3.54,9.98,4.88c-35.46,15.18-80.26-0.88-52.41-8.67C807.15-908.18,800.22-904.14,812.07-902.8z M870.78-873.78
				c24.7-4.67,26.97-10.51,26.97-10.51c-1.17,15.43-51.28,18.68-83.91,16.6c-21.45-1.38-25.62-4.85-25.62-4.81
				C808.57-869.14,842.93-868.54,870.78-873.78L870.78-873.78z M862.82-918.86c-42.93,12.56-90.7,1.03-59.98-9.17
				c0,0-7.75,5.73,4.11,6.97c15.32,1.59,27.46,1.7,48.41-2.34C857.5-921.39,860.04-919.84,862.82-918.86z"/>
			<path class="st1" d="M745.48-742.93c1.66,1.64,1.66,4.28,0,5.92c-46.74,46.57,28.54-28.21-49.99,50.03
				c-37.4-37.28-22.71-22.62-50.19-50.01c-1.64-1.66-1.64-4.31,0-5.94c0,0,15.94-15.9,50.19-50.03
				C710.42-778.1,730.39-757.98,745.48-742.93L745.48-742.93z M711.23-739.97l-15.73-15.67l-15.73,15.67l15.73,15.67L711.23-739.97z
				"/>
			<path class="st1" d="M335.61-858.47 M374.77-872.15c9.1-0.05,14.24,5.83,13.99,11.18c-0.17,4.23-4.04,5.96-4.76,6.08
				c-0.52,0.09-0.8,0.11-0.88-0.3c-0.05-0.28,0.14-0.42,0.75-0.8c0.61-0.38,2.45-1.65,2.78-3.93c0.33-2.28-1.38-7.75-10.14-8.77
				c-4.09-0.47-7.29,0.09-9.76,1.13c0.46,1.19,0.8,2.44,0.85,3.68c0.13,2.75-1.77,4.78-3.74,6.23c-1.04,0.75-2.18,1.34-3.39,1.74
				c-0.82,0.35-1.92,0.71-2.69,0.55c-1.71-0.35-2.63-1.85-1.46-5.2c0.63-1.81,2.44-4.56,5.36-6.93c-0.68-1.37-1.41-2.77-1.79-4.04
				c-0.41-1.33-0.74-2.68-0.97-4.06c0,0-2.41,4.99-5.52,9.53c-0.17,0.27-0.36,0.53-0.53,0.79c0.6,1.41,1.08,2.92,1.15,4.43
				c0.11,2.74-1.08,4.81-3.05,6.26c-0.98,0.7-2.04,1.26-3.17,1.67c-0.61,0.28-1.89,0.72-3.69,0.85c-0.99,0.08-1.93,0.02-2.47-0.39
				c-0.72-0.53-0.82-1.23-0.44-2.15c0.31-0.79,2.71-3.52,4.72-5.91c0.55-0.66,1.08-1.34,1.56-1.97c-0.01-0.01-0.01-0.02-0.02-0.03
				c0,0,0.36-0.47,0.96-1.29c-0.74-1.59-1.67-3.22-2.11-4.72c-0.41-1.33-0.74-2.68-0.97-4.06c0,0-2.43,6.24-4.98,11.24
				c-1.96,3.87-3.18,7.23-3.18,7.23v0.05c0,0-0.76,0.14-0.92,0.38c-0.08,0.13-0.08,0.19-0.08,0.19v0.11
				c-0.67,0.98-2.15,2.89-3.63,2.89c-4.06,0-2.58-8.25-2.58-8.25s-1.18,3.05-2.53,5.67c-1.09,2.15-2.07,3.95-4.25,3.95
				c-0.62,0-1.61-0.02-2.43-0.79c-1.86-1.77-3.3-6.27-3.02-9.75c0.24-2.97,0.7-5.02,1.33-6.73c-1.12,0.62-2.4,1.33-3.71,2.1
				c-0.68,0.39-1.36,0.79-2.02,1.18c0,0,0,0,0,0.01c1.73,3.16,2.23,10.35-1.45,15.84c-3.63,5.42-10.39,8.72-16.99,6.89
				c-2.12-0.6-5.34-4.99-2.57-11.12c2.45-5.4,12.22-10.52,14.8-11.8c0.22-0.13,0.46-0.25,0.71-0.39
				c-5.13-4.49-17.96-10.55-19.76-19.86c-0.51-2.62,0.73-8.89,8.42-16.1c6.48-6.05,15.48-10.7,23.8-13.65
				c13.97-4.96,28.74-2.04,31.01,6.87c2.23,8.77-5.37,19.24-15.13,23c-8.69,3.36-15.87,2.83-18.83,1.86
				c-3.36-1.11-5.34-3.32-5.81-4.57c-0.19-0.49-0.52-1.31,0-1.6c0.32-0.17,0.44-0.13,1.28,0.81c0.81,0.88,4.03,3.25,10.15,2.58
				c16.08-1.8,25.76-14.3,22.7-21.01c-2.13-4.71-14.51-6.82-29.99,0.88c-18.89,9.42-19.92,17.17-20.07,20.13
				c-0.45,8.21,10.27,12.48,15.87,18.64c0,0,0,0,0,0c1.06-0.58,2.18-1.2,3.27-1.8c2.84-1.56,5.55-3.03,6.79-3.71
				c1.99-2.89,6.03-6.08,8.94-6.08c4.66,0,3.06,6.7,3.06,6.7s0.09-0.32,0.22-0.32c0.13,0,0.65-0.87,2.09-0.35
				c1.48,0.55,1.14,1.58,1.15,1.69c0.02,0.21-1.74,6.15-2.48,9.97c-0.35,1.82-0.14,3.14-0.05,3.14c0.14,0,0.44-0.46,0.71-0.96v-0.12
				c0,0,0.18-0.38,0.52-1.05c0-0.03-0.03,0.05-0.08,0.13c0.03-0.06,0.08-0.14,0.14-0.27c0.41-0.79,0.97-1.95,1.63-3.4
				c1.29-2.85,6.21-13.79,6.61-15c0.41-1.21,0.63-2.47,0.83-3c0.2-0.53,1.95-0.94,3.98-0.93c2.03,0.02,2.23,0.88,2.25,1.05
				s-0.97,2.58-1.19,4.28c-0.22,1.7-0.02,2.55,0.17,3.98c0.13,0.94,0.71,2.12,1.4,3.46c2.09-3.43,5.78-10,6.14-11.84
				c0.2-1.02,0.48-2.03,0.83-3c0.2-0.53,1.95-0.94,3.98-0.93c2.03,0.02,2.23,0.88,2.25,1.05s-0.97,2.58-1.19,4.28
				c-0.22,1.7-0.02,2.55,0.17,3.98c0.16,1.23,1.12,2.86,2.04,4.73C368.49-871.42,371.61-872.15,374.77-872.15L374.77-872.15z
				 M307.16-849.4c3.05-3.32,4.31-7.53,3-12.31c-0.16,0.09-0.31,0.17-0.46,0.27c0,0-0.06,0.03-0.19,0.11
				c-0.75,0.46-1.37,0.83-1.79,1.08c-1.85,1.16-4.65,3.05-6.82,5.09c-3.57,3.37-4.31,8.02-2.44,9.1
				C300.21-845.04,304.27-846.24,307.16-849.4L307.16-849.4z M328.43-863.77c0.63-1.54,3.1-8.38,2.55-9.31
				c-0.41-0.71-2.15-0.14-3.74,1.63c-0.99,1.1-2.66,3.93-3.44,6.3c-1.56,4.72-0.88,9.51,0.22,9.79
				C325.3-855.01,327.42-861.3,328.43-863.77L328.43-863.77z M345.87-854.96c1.23-0.75,3.93-2.66,3.95-5.47
				c0-0.09-0.02-0.17-0.02-0.25c-0.63,0.82-1.21,1.56-1.71,2.19c-0.86,1.07-3.05,3.41-3.05,3.41s-0.31,0.3-0.17,0.38
				C345.06-854.6,345.45-854.74,345.87-854.96L345.87-854.96z M359.33-858.96c1.52-0.55,4.05-1.87,4.07-5.41
				c-0.01-0.58-0.11-1.15-0.3-1.7c-1.64,1.45-2.58,2.96-2.99,3.85C359.06-859.92,359.01-859.18,359.33-858.96L359.33-858.96z"/>
			<path class="st1" d="M325.73-654.76c0,20.32-16.46,36.78-36.78,36.78s-36.78-16.46-36.78-36.78c0-20.32,16.46-36.78,36.78-36.78
				S325.73-675.08,325.73-654.76z M308.78-670.26c2.28-0.08,2.93-2.29,2.9-3.43c-0.09-2.68-2.92-4.37-6.65-4.25
				c-0.28,0.01-9.68-0.51-15.19,15.65c-1.49-1.23-8.57-9.66-16.4-3.83c-2.81,2.1-4.66,7.11-0.44,11.82c2.51,2.69,3.96,3.76,3.3,5.91
				c-1.36,4.42-8.24,2.4-7.56,0.21c0.2-0.65,0.52-0.66,0.93-1.94c1.15-3.76-4.02-5.6-5.13-2.02c-0.64,2.09,0.35,5.86,5.69,7.51
				c6.25,1.92,11.54-1.48,12.29-5.92c0.47-2.78-0.78-4.85-3.08-7.51l-1.87-2.08c-1.14-1.14-1.53-3.07-0.35-4.55
				c0.99-1.25,2.4-1.79,4.72-1.16c3.38,0.92,4.88,3.26,7.39,5.15c-0.18,0.59-1.49,4.8-2.7,12.16c-1.8,9.42-3.17,14.59-6.73,17.55
				c-0.72,0.52-1.74,1.28-3.29,1.33c-0.29,0.01-2.1-0.42-0.3-1.86c2.26-1.24,1.04-5.15-2.21-5.04c-1.46,0.05-3.69,1.42-3.61,3.94
				c0.09,2.6,2.51,4.55,6.17,4.43c1.95-0.07,6.32-0.86,10.62-5.97c5.91-6.93,7.04-15.16,8.63-23.99c7.67,0.91,11.46-2.65,11.51-5.29
				c0.08-3.6-4.15-3.48-4.75-0.79c-0.28,1.31,1.99,2.49,0.21,3.64c-1.26,0.82-3.52,1.39-6.7,0.92c1.53-8.43,2.83-16.69,8.73-16.89
				c0.4-0.02,1.87,0.02,1.91,0.99c0.02,0.8-1.01,1.43-0.97,2.8C305.9-671.21,307.08-670.2,308.78-670.26L308.78-670.26z"/>
			<path class="st1" d="M1016.16-811.96v112h-112v-112H1016.16z M964.4-724.4v-35.79h-10.35v35.64c0,5.26-2.16,6.6-5.56,6.6
				c-3.57,0-5.04-2.47-6.66-5.38l-8.43,5.16c2.46,5.26,7.25,9.59,15.54,9.59C958.1-708.58,964.4-713.54,964.4-724.4L964.4-724.4z
				 M989.7-708.72c9.94,0,17.36-5.18,17.36-14.6c0-8.77-5.01-12.68-13.92-16.49l-2.62-1.12c-4.51-1.97-6.45-3.24-6.45-6.38
				c0-2.54,1.94-4.48,5.01-4.48c3.01,0,4.96,1.27,6.75,4.48l8.17-5.23c-3.44-6.08-8.22-8.39-14.9-8.39
				c-9.34,0-15.34,5.98-15.34,13.85c0,8.54,5.01,12.6,12.58,15.82l2.62,1.12c4.81,2.12,7.65,3.39,7.65,6.97
				c0,3.01-2.79,5.18-7.12,5.18c-5.16,0-8.1-2.72-10.34-6.38l-8.54,4.93C973.66-713.36,979.96-708.72,989.7-708.72L989.7-708.72z"/>
			<path class="st1" d="M509.75-820.48c-0.21-0.11-0.59-0.08-0.65-0.32c-0.04-0.08,0.04-0.17,0.11-0.21
				c0.3-0.17,0.72-0.11,1.05,0.02c0.25,0.11,0.65,0.29,0.61,0.55c-0.02,0.21-0.34,0.29-0.55,0.29
				C510.1-820.15,509.94-820.38,509.75-820.48L509.75-820.48z M505.05-820.42c-0.04-0.27,0.36-0.44,0.61-0.55
				c0.32-0.13,0.74-0.19,1.05-0.02c0.08,0.04,0.15,0.13,0.11,0.21c-0.08,0.23-0.46,0.19-0.67,0.3c-0.19,0.1-0.34,0.32-0.57,0.32
				C505.39-820.13,505.07-820.23,505.05-820.42z M547.42-767.05c2.11,2.36,3.03,4.09,2.95,5.66c-0.1,1.56-1.24,2.63-2.65,3.49
				c-2.84,1.71-7.1,3.01-9.69,6.13c-2.7,3.22-6.04,5.07-9.2,5.31c-3.14,0.25-6.09-1.2-7.68-4.38v-0.02
				c-0.21-0.4-0.36-0.84-0.48-1.28c-4.09,0.23-7.66-1.01-10.49-0.78c-4.19,0.23-6.82,1.24-9.2,1.26c-0.91,2.02-2.72,3.35-4.93,3.85
				c-3.05,0.7-6.88,0-10.65-1.98c-3.52-1.87-8-1.7-11.29-2.38c-1.66-0.34-3.1-0.95-3.83-2.34c-0.7-1.39-0.57-3.29,0.42-6.04
				c0.32-0.97,0.08-2.42-0.15-3.96c-0.11-0.74-0.23-1.5-0.23-2.25c0-0.82,0.13-1.62,0.53-2.36c0.86-1.62,2.25-2.3,3.52-2.76
				c1.28-0.46,2.44-0.76,3.24-1.58c0.99-1.05,1.92-2.74,3.16-3.85c-0.5-3.28,0.04-6.74,1.18-10.15c2.4-7.22,7.47-14.13,11.07-18.42
				c3.07-4.36,3.96-7.87,4.29-12.32c0.21-6.06-4.67-25.79,14.84-25.75c15.41,0.02,14.53,16.26,14.44,25.01
				c-0.06,5.73,3.1,9.62,6.36,13.71c2.89,3.43,6.68,8.44,8.86,14.17c1.77,4.69,2.46,9.87,0.7,15.06c0.27,0.1,0.53,0.23,0.78,0.38
				c0.27,0.15,0.51,0.34,0.76,0.55c1.26,1.07,1.66,2.72,2,4.27C546.41-769.26,546.74-767.82,547.42-767.05L547.42-767.05z
				 M509.75-823.18c0.69,0.17,1.7,0.46,2.48,0.84c-0.4-2.32,0.86-4.48,2.25-4.38c1.7,0.06,2.65,2.95,1.73,5.2
				c-0.15,0.36-0.53,0.65-0.74,0.88c1.28,0.44,2.09,0.78,2.4,0.93c1.5-1.81,2.06-4.99,0.82-7.69c-1.87-4.08-6.51-4.15-8.38,0.08
				C509.7-825.96,509.56-824.5,509.75-823.18z M500.95-819.6c1.49-1.09,1.31-0.9,1.12-1.05c-1.52-1.31-1.26-5.22,0.34-5.35
				c1.2-0.1,2.06,2.04,1.83,3.73c0.59-0.4,1.28-0.69,1.94-0.88c0.32-3.68-1.71-6.38-3.64-6.38
				C498.96-829.52,497.98-822.38,500.95-819.6z M499.96-817.96c-0.8,0.63-1.07,1.41-0.8,2.34c0.29,0.93,1.16,2,2.8,2.91
				c1.49,0.88,2.29,2.19,3.81,2.86c0.5,0.21,1.09,0.36,1.83,0.4c3.5,0.21,5.16-2.15,7.28-2.84c2.23-0.7,3.83-2.1,4.32-3.45
				c0.61-1.62-0.4-2.8-2-3.47c-2.15-0.93-3.1-0.99-4.3-1.77c-1.96-1.26-3.58-1.7-4.93-1.7c-2.74,0-4.42,1.87-5.31,2.7
				C502.55-819.87,501.15-818.84,499.96-817.96L499.96-817.96z M500.58-754.35c0.4-3.9-6-9.33-7.81-13.12l-3.73-6.78
				c-1.3-1.75-2.63-2.82-4.17-3.05c-1.47-0.23-2.4,0.27-3.37,1.31c-0.91,0.97-1.68,2.34-2.72,3.43c-1.49,1.24-1.77,1.18-3.73,1.89
				c-1.2,0.42-2.15,0.88-2.82,2.15c-0.51,0.95-0.4,2.32-0.17,3.81c0.23,1.5,0.57,3.1,0.11,4.55v0.04c-0.95,2.61-0.95,4.13-0.5,5.03
				c1.5,2.93,8.88,1.16,14.57,4.17C492.22-747.8,500.06-747.67,500.58-754.35L500.58-754.35z M500.33-759.28
				c7.16,4.89,15.66,2.99,21.77-1.37c0.61-2.1,1.2-4.06,1.3-5.52c0.15-2.89,0.3-5.47,0.84-7.6c0.59-2.4,1.77-4.4,4.08-5.2
				c0.44-4.02,3.56-4.02,7.29-2.38c3.6,1.62,4.95,3.05,4.34,4.97c0.19,0,0.38-0.02,0.8,0c0.99-3.22-2.72-5.33-5.85-6.63
				c0.55-2.29,0.46-4.59-0.08-6.8c-1.14-4.82-4.3-9.1-6.7-11.24c-0.44-0.02-0.4,0.36,0.5,1.24c2.21,2.04,7.07,9.37,4.44,16.17
				c-0.74-0.19-1.45-0.29-2.08-0.27c-1.01-5.54-3.33-10.13-4.49-12.3c-2.19-4.08-5.62-12.44-7.08-18.23
				c-0.86,1.22-2.36,2.27-4.25,2.86c-0.9,0.29-1.85,1.05-3.03,1.71c-2.65,1.52-5.71,1.68-8.08-0.23c-0.86-0.69-1.52-1.45-2.4-1.96
				c-0.3-0.17-0.97-0.63-1.18-0.78c-0.38,7.2-5.2,16.25-7.48,21.46c-1.58,3.75-2.51,7.77-2.63,11.71
				c-4.15-5.54-1.12-12.63,0.5-15.69c1.81-3.35,2.1-4.29,1.66-3.96c-1.64,2.67-4.19,6.91-5.18,11.27c-0.51,2.27-0.61,4.57,0.06,6.7
				c0.67,2.13,2.11,4.09,4.69,5.69c0,0,4.72,2.72,7.29,6.19c1.41,1.9,1.85,3.56,1.41,4.74c-0.48,1.28-1.83,1.7-3.18,1.7
				C498.5-761.87,499.55-760.54,500.33-759.28L500.33-759.28z M549.35-761.47c0.06-0.97-0.59-2.48-2.61-4.69
				c-1.9-2.15-1.37-6.3-3.26-7.92c-1.31-1.14-2.59-1.03-4.3-0.97c-1.47,1.68-4.91,3.73-7.31,3.1c-2.19-0.55-3.43-3.1-3.58-5.62
				c-0.06,0.04-0.13,0.06-0.19,0.1c-1.35,0.74-2.11,2.06-2.61,4.02c-0.48,1.94-0.65,4.48-0.8,7.37c-0.13,2.25-1.18,5.03-1.89,7.73
				c-0.67,2.51-1.1,4.8-0.21,6.91c1.37,2.76,3.71,3.89,6.42,3.68c2.7-0.21,5.79-1.87,8.3-4.86
				C541.5-757.68,549.18-758.27,549.35-761.47L549.35-761.47z M500.71-815.64c-0.67-0.53-0.59-1.26-0.32-1.24
				c0.46,0.06,0.53,0.67,0.82,0.93c0.38,0.36,0.88,0.84,1.47,1.31c1.18,0.93,2.76,1.85,4.74,1.85s4.29-1.14,5.69-1.94
				c0.8-0.46,1.81-1.26,2.65-1.87c0.65-0.48,0.61-1.03,1.14-0.97s0.15,0.61-0.59,1.26c-0.74,0.65-1.89,1.49-2.82,1.98
				c-1.77,0.93-3.85,2.06-6.06,2.06c-2.19,0-3.94-1.03-5.2-2.02C501.6-814.78,501.09-815.28,500.71-815.64L500.71-815.64z"/>
			<path class="st1" d="M62.79-558.97l53.36-10.65l-10.65-53.36l-53.36,10.65L62.79-558.97z M120.82-570.56l53.36-10.65
				l-10.65-53.36l-53.36,10.65L120.82-570.56z M74.38-500.94l53.36-10.65l-10.65-53.36L63.73-554.3L74.38-500.94z M132.41-512.52
				l53.36-10.65l-10.65-53.36l-53.36,10.65L132.41-512.52z"/>
			<path class="st1" d="M427.86-602.89l43.5-12.23c2.83-0.81,5.02-3.07,5.74-5.91l11.14-43.76c0.73-2.85-0.12-5.89-2.22-7.93
				l-32.35-31.56c-2.04-1.96-5.22-2.77-7.97-2.03l-43.46,12.24c-2.82,0.79-5.02,3.07-5.74,5.91l-11.14,43.76
				c-0.73,2.85,0.12,5.89,2.22,7.93l8.48,8.26c4.2,3.6,5.92,4.04,8.12,4.6c7.13,1.81,12.33-1.45,14.24-8.97l11-43.22
				c0.16-0.62-0.24-1.22-0.83-1.37l-4.8-1.22c-0.62-0.16-1.23,0.19-1.39,0.81l-11,43.2c-0.85,3.35-5.14,5.77-10.07,1.52l-8.86-8.64
				c-0.32-0.28-0.44-0.75-0.34-1.16l11.14-43.76c0.11-0.43,0.44-0.78,0.86-0.9l43.46-12.24c0.4-0.12,0.87,0,1.17,0.3l32.34,31.52
				c0.31,0.32,0.44,0.77,0.33,1.2l-11.14,43.78c-0.1,0.41-0.43,0.76-0.84,0.88l-43.5,12.23c-0.38,0.12-0.87,0-1.17-0.3l-8.26-8.25
				c-0.24-0.26-0.59-0.41-0.92-0.32c-3.08,0.86-3.64,0.91-6.39,1.15c-0.67,0.05-1.69,0.18-0.07,1.73l10.76,10.72
				c1.03,1.01,2.34,1.73,3.71,2.08C425-602.48,426.47-602.5,427.86-602.89z M465.2-638.18c-2.1,8.25-10.21,11.24-22.2,8.21
				c-16.61-4.23-18.14-12.73-16.52-19.12c0.15-0.6,0.75-0.97,1.37-0.81l4.91,1.25c0.55,0.14,0.91,0.65,0.85,1.2
				c-0.53,5.18,1.02,8.26,11.06,10.82c7.99,2.03,11.86,1.09,12.93-3.14c0.62-2.44,0.12-4.52-11.99-8.89
				c-10.11-3.67-15.95-7.6-13.84-15.9c1.95-7.66,9.56-10.58,20.38-7.82c12.16,3.09,17.1,8.84,15.56,18.08
				c-0.06,0.31-0.24,0.6-0.5,0.77c-0.26,0.17-0.58,0.22-0.89,0.15l-4.93-1.25c-0.51-0.13-0.87-0.62-0.85-1.13
				c0.15-5.56-2.3-7.98-10.08-9.96c-8.73-2.22-10.51,0.56-11.09,2.84c-0.7,2.75,0.29,3.86,11.68,8.42
				C462.29-649.96,467.28-646.38,465.2-638.18L465.2-638.18z"/>
			<path class="st1" d="M555.58-981.55c-58.35,10.59-98.81,43.34-93.91,70.35c4.9,27.01,54.26,43.46,112.65,32.86
				c58.35-10.59,98.81-43.34,93.91-70.35C663.32-975.71,613.96-992.15,555.58-981.55 M673.94-949.73
				c5.75,31.68-38.41,66.19-98.59,77.11s-113.66-5.86-119.41-37.54c-5.75-31.68,38.41-66.19,98.59-77.11
				S668.19-981.41,673.94-949.73z M529.43-928.25c0.15-13.54-8.39-10.55-21.33-8.2l-0.3,24.9
				C519.48-913.67,529.25-913.97,529.43-928.25L529.43-928.25z M495.66-943.55l24.08-4.37c7.22-1.31,12.88-0.4,16.87,2.81
				c7.66,6.14,7.98,21.1,0.58,30.89c-6.67,8.99-15.54,9.54-29.54,12.08l-0.19,15.8l-12.5,2.27L495.66-943.55z M545-968.3
				l-0.71,59.45l12.43-2.26l0.43-34.07c10.12-1.84,14.23-3.01,16.43-1.36c2.28,1.7,1.7,4.13,1.36,32.12l12.6-2.29
				c0.37-28.95,1.72-35.32-4.17-39.04c-5.61-3.56-15.41-0.97-26.14,0.98l0.19-15.8L545-968.3L545-968.3z M627.12-945.98
				c0.15-13.54-8.32-10.56-21.33-8.2l-0.3,24.9C616.87-931.35,626.94-931.49,627.12-945.98L627.12-945.98z M593.38-961.29
				l24.08-4.37c7.22-1.31,12.88-0.4,16.87,2.81c7.66,6.14,7.98,21.1,0.58,30.89c-6.53,8.79-14.83,9.41-29.54,12.08l-0.19,15.8
				l-12.54,2.28L593.38-961.29z"/>
			<path class="st1" d="M1299.41-529.97c2.37,9.49,2.48,16.61,0,24.02c-2.39,7.19-4.93,11.99-11.81,11.99h-35.44v2h23v9.3
				c0,6.77-5.83,10.22-11.75,11.93c-8.91,2.57-16.06,2.18-23.5,0c-6.21-1.82-11.75-5.56-11.75-11.93v-22.37
				c0-6.44,5.32-11.93,11.75-11.93h23.75c7.73,0,14.5-6.73,14.5-14.71v-10.29h9.44C1294.48-541.96,1297.71-536.81,1299.41-529.97
				L1299.41-529.97z M1260.62-481.21c0,2.46,2,4.48,4.42,4.48c2.44,0,4.42-2,4.42-4.48c0-2.46-1.98-4.46-4.42-4.46
				C1262.62-485.67,1260.64-483.69,1260.62-481.21z M1239.24-519.96c-8.19,0-15.08,7.02-15.08,14.99v11.01h-8.73
				c-6.88,0-10.88-5-12.56-11.99c-2.26-9.4-2.17-15.02,0-24.02c1.88-7.85,7.9-11.99,14.78-11.99h32.52v-3h-23v-9.3
				c0-6.79,1.8-10.46,11.75-12.22c7.06-1.25,15.62-1.32,23.5-0.02c6.38,1.08,11.75,5.84,11.75,12.22v22.39
				c0,6.55-5.21,11.93-11.75,11.93H1239.24L1239.24-519.96z M1241.97-555.71c0-2.46-2-4.48-4.42-4.48c-2.44,0-4.39,2-4.42,4.48
				c0,2.46,1.98,4.46,4.42,4.46C1239.99-551.25,1241.97-553.25,1241.97-555.71z"/>
			<path class="st1" d="M200.39-1099.03c2.96-0.6,4.86-3.49,4.26-6.44s-3.49-4.86-6.44-4.26s-4.86,3.49-4.26,6.44
				C194.55-1100.34,197.44-1098.43,200.39-1099.03 M141.27-1086.98c2.96-0.6,4.86-3.49,4.26-6.44c-0.6-2.96-3.49-4.86-6.44-4.26
				c-2.96,0.6-4.86,3.49-4.26,6.44C135.43-1088.29,138.32-1086.38,141.27-1086.98 M195.75-1131.64
				c20.39,6.24,36.73,22.27,43.05,43.85l-128.46,26.17c-2.64-22.33,6.13-43.47,22.46-57.2l-14.46-16.33l0,0
				c-0.07-0.07-0.14-0.15-0.2-0.22c-0.77-0.99-0.59-2.42,0.4-3.19s2.42-0.59,3.19,0.4l14.65,16.54
				c15.89-11.41,35.9-15.48,54.99-11.2l7.01-20.96l0,0c0.03-0.1,0.06-0.19,0.1-0.29c0.48-1.16,1.81-1.72,2.97-1.24
				c1.16,0.48,1.72,1.81,1.24,2.97L195.75-1131.64"/>
			<g>
				<path class="st1" d="M728.9-1160.89l-20.64,17.66c-12.02-13.88-30.89-21.19-50.23-17.57c-28.99,5.44-48.06,33.33-42.63,62.3
					c1.77,9.45,5.92,17.85,11.72,24.68l-21.14,18.08c-1.47-1.78-2.45-4-2.94-6.6l-12.25-65.37c-0.99-5.29,0.49-9.79,4.59-13.31
					c9.95-8.56,43.37-37.03,50.03-42.84c4.46-3.9,9.36-4.93,14.97-2.96c20.81,7.33,41.65,14.6,62.47,21.91
					C725.38-1164.02,727.38-1162.66,728.9-1160.89z"/>
				<path class="st1" d="M687.89-1125.81l-20.22,17.3l-20.18,17.26c-2.84-3.39-4.89-7.52-5.76-12.18
					c-2.71-14.43,6.81-28.32,21.24-31.02l0.29-0.06C672.75-1136.18,681.96-1132.58,687.89-1125.81z"/>
				<path class="st1" d="M743.84-1081.58c-0.75,2.26-2.15,4.29-4.22,6.09c-16.77,14.35-33.55,28.68-50.31,43.05
					c-4.52,3.87-9.45,4.68-15.03,2.65c-8.31-3-49.78-17.44-62.15-21.81c-2.58-0.91-4.62-2.3-6.15-4.14l21.14-18.08
					c0.04,0.04,0.08,0.09,0.12,0.14c12,14.05,30.99,21.48,50.46,17.83l0.58-0.12c19.14-3.8,33.88-17.44,39.95-34.66L743.84-1081.58z
					"/>
				<path class="st1" d="M692.96-1099.57c-3.05,8.69-10.51,15.56-20.2,17.38c-9.71,1.82-19.18-1.9-25.15-8.92
					c-0.04-0.05-0.08-0.1-0.12-0.14l20.18-17.26L692.96-1099.57z"/>
				<path class="st2" d="M743.84-1081.58l-25.61-9.05l-25.27-8.94l-25.29-8.94l20.22-17.3l20.37-17.42l20.64-17.66
					c1.52,1.81,2.54,4.06,3.04,6.72c4.09,21.79,12.26,65.36,12.26,65.36C744.69-1086.19,744.57-1083.78,743.84-1081.58z
					 M720.94-1110.79l7.44-1.39l-0.7-3.73l-7.44,1.4l-1.39-7.44l7.44-1.4l-0.7-3.71l-7.44,1.39l-1.39-7.44l-3.73,0.7l1.39,7.44
					l-7.44,1.39l-1.39-7.44l-3.73,0.7l1.4,7.44l-7.44,1.4l0.69,3.71l7.44-1.39l1.4,7.44l-7.44,1.39l0.7,3.73l7.44-1.4l1.39,7.44
					l3.73-0.69l-1.4-7.44l7.44-1.4l1.4,7.44l3.72-0.7L720.94-1110.79z"/>
				<path class="st0" d="M720.94-1110.79l1.39,7.44l-3.72,0.7l-1.4-7.44l-7.44,1.4l1.4,7.44l-3.73,0.69l-1.39-7.44l-7.44,1.4
					l-0.7-3.73l7.44-1.39l-1.4-7.44l-7.44,1.39l-0.69-3.71l7.44-1.4l-1.4-7.44l3.73-0.7l1.39,7.44l7.44-1.39l-1.39-7.44l3.73-0.7
					l1.39,7.44l7.44-1.39l0.7,3.71l-7.44,1.4l1.39,7.44l7.44-1.4l0.7,3.73L720.94-1110.79z M716.51-1113.81l-1.39-7.44l-7.44,1.39
					l1.39,7.44L716.51-1113.81z"/>
				
					<rect x="708.31" y="-1120.62" transform="matrix(0.1837 -0.983 0.983 0.1837 1679.1563 -211.7419)" class="st2" width="7.57" height="7.57"/>
				<path class="st0" d="M708.26-1143.23l-20.37,17.42c-5.93-6.77-15.14-10.37-24.63-8.7l-0.29,0.06
					c-14.43,2.7-23.95,16.59-21.24,31.02c0.87,4.66,2.92,8.79,5.76,12.18l-20.37,17.43c-5.8-6.83-9.95-15.23-11.72-24.68
					c-5.43-28.97,13.64-56.86,42.63-62.3C677.37-1164.42,696.24-1157.11,708.26-1143.23z"/>
				<path class="st0" d="M718.23-1090.63c-6.07,17.22-20.81,30.86-39.95,34.66l-0.58,0.12c-19.47,3.65-38.46-3.78-50.46-17.83
					c-0.04-0.05-0.08-0.1-0.12-0.14l20.37-17.43c0.04,0.04,0.08,0.09,0.12,0.14c5.97,7.02,15.44,10.74,25.15,8.92
					c9.69-1.82,17.15-8.69,20.2-17.38L718.23-1090.63z"/>
			</g>
			<g>
				<path class="st2" d="M1103.8-981.28l-14.77,51.92c-0.43,1.5-1.43,3.02-2.71,4.25l-18.06-18.61l-7.37-7.61l-5.73-5.92v-0.01
					l-13.13-13.53l18.28-4.6c0.01,0,0.01,0.01,0.01,0.01l7.92-2l35.5-8.94C1104.17-984.59,1104.22-982.77,1103.8-981.28z
					 M1078.86-962.49l-4.02-1.14l1.14-4.03l-4.03-1.15l-1.15,4.03l-4.02-1.14l-1.14,4.02l4.02,1.14l-1.15,4.03l4.03,1.15l1.14-4.03
					l4.02,1.14L1078.86-962.49z M1093.97-958.19l-4.02-1.14l1.15-4.03l-4.03-1.14l-1.14,4.03l-4.03-1.14l-1.14,4.02l4.03,1.14
					l-1.14,4.03l4.03,1.14l1.15-4.03l4.02,1.14L1093.97-958.19z"/>
				<path class="st1" d="M1086.32-925.11c-1.27,1.24-2.81,2.19-4.32,2.58l-52.35,13.17c-3.02,0.77-7.26-0.45-9.42-2.68l-37.59-38.75
					c-1.08-1.12-1.89-2.74-2.32-4.47l25.16-6.33c3.19,12.62,12.84,23.26,26.23,27.06c12.91,3.67,26.91,0.15,36.55-9.19
					L1086.32-925.11z"/>
				<path class="st1" d="M1055.16-957.26L1055.16-957.26c-4.83,4.67-11.84,6.44-18.29,4.6c-6.69-1.91-11.52-7.23-13.11-13.54
					l18.27-4.6L1055.16-957.26z"/>
				<path class="st1" d="M1068.23-977.38l10.35-2.63c-3.28-13.01-13.34-23.37-26.25-27.04c-19.99-5.69-40.89,5.95-46.57,25.95
					c-1.88,6.6-1.87,13.3-0.29,19.51l-25.16,6.33c-0.43-1.72-0.49-3.54-0.07-5.03l14.77-51.92c0.85-2.99,4.02-6.05,7.03-6.82
					l52.35-13.17c3.02-0.76,7.26,0.45,9.42,2.68l37.59,38.75c1.08,1.12,1.89,2.74,2.32,4.46L1068.23-977.38z"/>
				<path class="st1" d="M1060.3-975.39l-18.28,4.6l-18.27,4.6c-0.8-3.11-0.8-6.46,0.13-9.76c2.85-9.99,13.3-15.81,23.29-12.97
					C1053.64-987.08,1058.66-981.9,1060.3-975.39z"/>
				<g>
					<path class="st0" d="M1068.27-943.72c-9.64,9.34-23.65,12.86-36.55,9.19c-13.39-3.81-23.04-14.45-26.23-27.06l18.28-4.6
						c1.59,6.31,6.41,11.63,13.11,13.54c6.46,1.84,13.46,0.07,18.29-4.6l5.73,5.92L1068.27-943.72z"/>
					<path class="st0" d="M1078.59-980l-10.35,2.63l-7.93,1.99c-1.64-6.51-6.67-11.69-13.12-13.53
						c-9.99-2.84-20.45,2.98-23.29,12.97c-0.93,3.3-0.93,6.65-0.13,9.76l-18.28,4.6c-1.58-6.2-1.59-12.91,0.29-19.51
						c5.68-19.99,26.58-31.64,46.57-25.95C1065.25-1003.37,1075.31-993.01,1078.59-980z"/>
				</g>
				<polygon class="st0" points="1078.86,-962.49 1077.71,-958.46 1073.69,-959.61 1072.54,-955.57 1068.51,-956.73 
					1069.66,-960.76 1065.63,-961.91 1066.78,-965.93 1070.8,-964.78 1071.95,-968.82 1075.98,-967.66 1074.83,-963.63 				"/>
				<polygon class="st0" points="1093.97,-958.19 1092.82,-954.17 1088.8,-955.31 1087.66,-951.28 1083.62,-952.43 1084.77,-956.46 
					1080.74,-957.6 1081.88,-961.63 1085.91,-960.48 1087.06,-964.51 1091.09,-963.37 1089.94,-959.34 				"/>
			</g>
			<g>
				<path class="st3" d="M453.65-1179.69c-0.47-0.23-0.97-0.41-1.48-0.56C452.68-1180.11,453.18-1179.92,453.65-1179.69z"/>
				<path class="st3" d="M508.43-1126.94l-13.54,63.76c2.74-13.54,10.48-49.52,13.2-62.31c0.21-1.03,0.47-2.19,0.47-3.36
					C508.61-1128.22,508.56-1127.57,508.43-1126.94z M507.8-1131.75c-0.05-0.08-0.09-0.15-0.15-0.22l-24.69,7.91l-23.33,7.47
					c-0.01-0.02-0.01-0.03-0.02-0.05l23.34-7.46l24.72-7.9C507.71-1131.93,507.76-1131.83,507.8-1131.75z"/>
				<path class="st4" d="M494.45-1061.48c-0.76,2.21-2.52,3.95-4.83,4.67c-12.86,4.01-51.54,16.08-64.4,20.09
					c-2.59,0.81-5.46,0.2-7.5-1.6c-10.12-8.88-40.57-35.62-50.69-44.51c-2.05-1.8-2.97-4.51-2.42-7.12l0.14-0.61
					c-0.34,1.56-0.45,2.75,0.2,4.16l24.66-7.88c5.02,16.54,18.65,29.93,36.74,33.77c17.84,3.78,35.48-2.68,46.81-15.39l19.68,16.98
					C493.5-1059.61,494.08-1060.51,494.45-1061.48z"/>
				<path class="st4" d="M507.67-1132l-24.72,7.9c-5.37-15.85-18.72-28.55-36.26-32.27c-26.45-5.62-52.49,11.3-58.1,37.76
					c-1.78,8.36-1.3,16.68,1.02,24.33l-24.66,7.88c-0.65-1.41-0.54-2.6-0.2-4.16l13.57-63.98c0.56-2.61,2.5-4.72,5.1-5.53
					c12.85-4.01,51.54-16.08,64.39-20.09c1.27-0.39,2.59-0.45,3.85-0.21c0.17,0.04,0.34,0.08,0.51,0.13
					c0.23,0.06,0.45,0.13,0.66,0.21c0.28,0.1,0.55,0.22,0.82,0.34c0.16,0.08,0.31,0.16,0.46,0.25c0.43,0.25,0.84,0.54,1.21,0.87
					c10.12,8.89,40.57,35.63,50.69,44.51C506.69-1133.46,507.25-1132.77,507.67-1132z"/>
				<path id="path6_3_" class="st5" d="M482.96-1124.06l-23.33,7.47c-0.01-0.02-0.01-0.03-0.02-0.05l23.34-7.46
					C482.96-1124.09,482.96-1124.08,482.96-1124.06z"/>
				<path class="st6" d="M482.95-1124.1l-23.34,7.46c-2.77-7.75-9.38-13.94-18-15.77c-13.23-2.81-26.25,5.65-29.06,18.88
					c-0.86,4.05-0.66,8.07,0.4,11.79l-23.34,7.46c-2.32-7.65-2.8-15.97-1.02-24.33c5.61-26.46,31.65-43.38,58.1-37.76
					C464.23-1152.65,477.58-1139.95,482.95-1124.1z"/>
				<path class="st6" d="M473.16-1075.91v0.01c-11.33,12.71-28.97,19.17-46.81,15.39c-18.09-3.84-31.72-17.23-36.74-33.77
					l23.34-7.46c2.42,8.45,9.31,15.32,18.48,17.27c8.8,1.86,17.5-1.25,23.18-7.45L473.16-1075.91z"/>
				<path class="st4" d="M435.13-1108.74l19.48,16.82c-5.68,6.2-14.38,9.31-23.18,7.45c-9.17-1.95-16.06-8.82-18.48-17.27
					l46.66-14.9c0.01,0.02,0.01,0.03,0.02,0.05L435.13-1108.74z"/>
				<path class="st4" d="M459.61-1116.64l-46.66,14.9c-1.06-3.72-1.26-7.74-0.4-11.79c2.81-13.23,15.83-21.69,29.06-18.88
					C450.23-1130.58,456.84-1124.39,459.61-1116.64z"/>
				<path class="st7" d="M460.49-1103.36c-0.94,4.43-3.02,8.32-5.88,11.44l-19.48-16.82l24.5-7.85
					C461.08-1112.48,461.46-1107.92,460.49-1103.36z"/>
				<path class="st7" d="M484.45-1098.27c-1.83,8.61-5.82,16.22-11.29,22.36l-18.55-16.01c2.85-3.11,4.94-7.01,5.88-11.44
					c0.97-4.57,0.59-9.12-0.86-13.23l23.33-7.47C485.68-1116.02,486.34-1107.17,484.45-1098.27z"/>
				<path class="st7" d="M508.56-1128.85c0,1.17-0.26,2.33-0.47,3.36c-2.72,12.79-10.46,48.77-13.2,62.31
					c-0.05,0.22-0.09,0.43-0.13,0.63l-0.01,0.06c-0.02,0.09-0.04,0.17-0.06,0.25c-0.01,0.06-0.03,0.11-0.04,0.16
					c-0.03,0.1-0.06,0.2-0.1,0.3c-0.03,0.1-0.06,0.2-0.1,0.3c-0.37,0.97-0.95,1.87-1.61,2.56l-19.68-16.98v-0.01
					c5.47-6.14,9.46-13.75,11.29-22.36c1.89-8.9,1.23-17.75-1.49-25.79l24.69-7.91c0.06,0.07,0.1,0.14,0.15,0.22
					c0.01,0.01,0.02,0.03,0.02,0.04c0.4,0.81,0.65,1.68,0.73,2.57C508.55-1129.04,508.56-1128.94,508.56-1128.85z"/>
				<path class="st8" d="M508.55-1129.14c-0.08-0.89-0.33-1.76-0.73-2.57C508.32-1130.9,508.52-1130.02,508.55-1129.14z"/>
			</g>
			<path class="st1" d="M1219.83-1187.95l12.21,102.39l-37.12,21.62l-42.68-4.89l-29.94-98.67L1219.83-1187.95z M1144.68-1150.74
				l3.9,11.44l30.52-6.4l-1.47,1.01l-25.4,17.43l3.3,11.31l0.04-0.04l0.12,0.6l44.88-9.27l2.48,16.82l-13.88,7.25l-14.94-0.61
				l-3.03-10.15l-13.62,2.85l5.64,18.69l27.02,2.19l23.74-12.69l-4.62-38.45l-28.65,6.01l0.07-0.04l26.56-18.59l-1.29-12.22
				L1144.68-1150.74z"/>
			<path class="st1" d="M1241.27-929.63l-24.89,99l-42.1,6.86l-37.61-19.59l7.18-101.83L1241.27-929.63z M1219.83-911.7l-61.16-9.76
				l-2.64,37.35l43.05,6.87l-4.23,16.28l-14.89,1.58l-13.61-6.13l0.69-10.28l-10.86-1.73l-1.52,19.08l23.45,10.7l0.27,0.04
				l-0.23,1.45l26.51-2.95l9.67-37.93l-45.54-7.27l0.98-12.98l47.03,7.51L1219.83-911.7z"/>
			<g>
				<path class="st1" d="M5.63-977.42c0.55-2.56,1.84-3.57,4.09-3.76c5.39-0.49,8.55,1.61,9.29,5.34l4.93,24.7l14.96-20.43
					c2.27-3.08,5.95-3.72,10.66-1.05c1.97,1.09,2.73,2.55,2.18,5.11l-5.63,26.22l-6.65-1.43l5.64-26.26l-15.21,20.68
					c-1.81,2.51-3.62,3.15-6.88,2.45c-3.26-0.7-4.71-2.04-5.33-5.07l-5.38-25.11l-5.64,26.26L0-951.2L5.63-977.42z"/>
				<path class="st1" d="M53.02-946.56c-0.66,3.31,2.91,7.08,9.48,8.56l14.14,3.04l-0.37,1.74c-0.15,0.72-0.1,2.95-4.48,2.49
					c-0.05-0.01-21-4.51-21.04-4.52l-0.96,4.47l21,4.51c3.35,0.62,10.85,0.91,12.05-4.89c0.02-0.1,5.1-23.58,5.07-23.59l-6.66-1.43
					l-3.7,17.23c-0.12-0.03-12.61-2.68-14.46-3.11c-3.63-0.84-3.55-2.75-3.32-3.52l3.11-14.47l-6.65-1.43
					C56.34-961.31,53.09-946.87,53.02-946.56z"/>
				<path class="st1" d="M89.38-936.64l18.35,3.94c0.26,0.05,0.46,0.05,0.71,0.11c1.3,0.19,2.33,0.05,3.02-0.33
					c0.75-0.37,1.2-0.9,1.3-1.37l0.83-3.88c0.09-0.43,0.05-0.84-0.25-1.3c-0.48-0.9-1.29-1.48-3.36-2.1
					c-0.18-0.08-0.44-0.14-0.69-0.19l-6.91-1.48c-0.64-0.14-1.27-0.32-1.9-0.5c-5.56-1.82-8.4-5.1-7.76-8.09l0.83-3.88
					c0.73-3.41,2.88-5,7.11-5.39c1.36-0.11,2.8,0.02,5.49,0.6l18.67,4.01l-0.95,4.43l-18.99-4.08c-0.19-0.04-0.46-0.05-0.65-0.09
					c-2.41-0.3-3.2-0.06-3.81,1.23c-0.11,0.2-0.15,0.37-0.18,0.54l-0.65,3.03c-0.05,0.21-0.08,0.38-0.06,0.61
					c-0.06,1.86,1.04,2.94,3.73,3.52l8.06,1.73c1.98,0.43,3.96,1.21,5.48,2.2c2.88,1.87,4.09,4,3.68,5.92l-1.04,4.86
					c-0.5,2.35-2.3,3.83-5.46,4.54c-1.9,0.44-4.18,0.44-6.41-0.04l-19.12-4.11L89.38-936.64z"/>
				<path class="st1" d="M166.05-947.65l6.65,1.43l-4.93,22.94c-0.5,2.34,0.76,3.64,4.66,4.48l17.46,3.75l-0.95,4.43l-17.33-3.72
					c-0.64-0.14-1.27-0.32-1.9-0.5c-6.73-1.98-9.57-5.27-8.59-9.83L166.05-947.65z"/>
				<path class="st1" d="M128.59-924.04c1.33,0.69,2.57,1.13,3.79,1.4l7.11,1.53l5.41,0.81l4.27,5.92l7.72,1.66l-5.28-7.32
					c3-0.54,4.58-2.03,5.28-5.29l3.39-15.81c0.86-4.02-1.43-7.06-6.84-9.02c-0.62-0.22-1.19-0.39-1.83-0.53l-12.62-2.71
					c-0.58-0.12-1.23-0.22-1.82-0.26c-5.74-0.43-9.08,1.4-9.94,5.42l-3.39,15.81C123.04-928.76,124.61-926.1,128.59-924.04z
					 M134.32-946.32c0.43-2.01,2.63-2.88,5.58-2.24l10.06,2.16c2.56,0.55,4.08,1.9,4.1,3.7c0.02,0.23-0.03,0.44-0.06,0.61
					l-3.26,15.17c-0.05,0.21-0.09,0.43-0.2,0.63c-0.41,0.89-1.15,1.49-2.14,1.77l-3.9-5.41l-7.72-1.66l4.47,6.2l-6.04-1.3
					c-2.63-0.56-4.14-1.96-4.13-3.88c-0.01-0.27-0.03-0.5,0.02-0.71L134.32-946.32z"/>
				<path class="st1" d="M200.1-951.07c-1.4-1.52-2.83-3.15-4.37-4.59c-0.8-0.75-2.3-1.52-3.19-2.14c-1.26-0.88-4.19-2.11-4.76-3.33
					c-1.07-2.33-1.59-4.99-2.13-7.63c-0.55-2.65-1.35-5.48-1.89-8.19c-0.27-1.34-0.29-2.5-0.65-3.79
					c-2.2-7.99-6.39-15.19-12.18-20.86c-1.9-1.86-4.05-3.66-6.57-5.06c-1.43-0.79-3.32-0.93-4.87-1.65
					c-0.35-0.07-0.7-0.15-1.05-0.22c-0.86-0.47-1.42-1.6-2.07-2.27c-1.35-1.38-2.75-2.46-4.45-3.63c-0.64-0.44-2.37-1.54-3.15-1.16
					c-0.42,0.05-0.64,0.17-0.85,0.55c-0.52,0.51-0.36,1.51-0.22,2.14c0.4,1.78,1.27,3,1.94,4.55c0.61,1.4,1.37,3,1.71,4.5
					c0.7,3.13,0.6,6.42,1.24,9.51c0.25,1.19,0.67,2.57,1.16,3.65c0.4,0.88,1.27,1.67,1.36,2.72c0.42,1.13-1.87,4.19-2.45,5.19
					c-2.23,3.87-3.2,9.76-2.46,13.7c0.29,1.56,0.51,3.35,2.04,4.09c0.14-0.07,0.04-0.04,0.26-0.07c0.94-2.71,1.64-5.37,3.04-7.37
					c0.88-1.25,2.19-1.96,3.19-2.96c0.48,0.44,0.28,1.36,0.41,2.03c0.34,1.74,0.68,3.62,1.16,5.36c1,3.64,2.2,7.19,3.7,10.52
					c0.53,1.18,1.31,2.51,2.02,3.6c0.3,0.46,0.74,0.76,0.94,1.3c0.04,0.01,0.08,0.02,0.12,0.03c-0.01,0.04-0.02,0.08-0.03,0.12
					c-1.45-0.87-2.06-2.65-3.07-3.82c-1.95-2.26-4.14-5.46-5.15-8.28c-0.4-1.54-0.8-3.09-1.19-4.63c0.01-0.04,0.02-0.08,0.02-0.12
					c-0.37,0.33-0.37,0.77-0.65,1.32c-1.21,2.42-1.32,5.43-3.81,5.87c-2.86,0.51-4.17-2.7-4.7-4.17
					c-1.73-4.81-0.89-12.07,2.16-17.41c0.68-1.19,1.05-2.74,1.99-3.59c0.08-0.93-0.6-1.34-0.9-2.02c-0.49-1.1-0.86-2.35-1.19-3.54
					c-0.64-2.34-0.84-4.97-1.2-7.43c-0.14-1-0.03-1.89-0.24-2.85c-0.32-1.46-1.13-3.02-1.73-4.39c-0.85-1.95-3.56-5.92-1.48-8.95
					c3.29-4.8,9.91,0.81,12.43,3.28c0.63,0.62,1.24,1.75,1.95,2.24c1.26,0.35,2.52,0.7,3.79,1.06c2.26,1.08,4.42,1.99,6.06,3.49
					c7.7,7.04,12.25,13.5,15.67,23.31c0.71,2.04,0.86,4.16,1.31,6.36c0.66,3.23,1.43,6.61,2.29,9.73c0.41,1.49,0.59,3.06,1.24,4.4
					c0.28,0.57,1.26,0.94,1.78,1.35c1.53,1.24,3.4,2.33,4.8,3.71c2.53,2.47,4.89,5.3,7.02,8.07c0.81,1.06,1.2,2.44,1.91,3.57
					c-0.03,0.16-0.07,0.31-0.1,0.47c-0.86,0.06-1.73,0.12-2.59,0.17c-1.9,0.08-3.44-0.38-5.29-0.28c-1.1,0.06-2.51,0.18-3.66,0.06
					c0.03,0.05,0.06,0.09,0.09,0.14c0.27,1.99,3.49,4.3,4.84,5.78c1.69,1.86,3.19,3.98,4.25,6.26c0.4,0.61,0.79,1.22,1.19,1.84
					c0.24,0.57,0.19,1.25,0.46,1.8c-0.01,0.04-0.02,0.08-0.02,0.12c-0.66-0.4-0.89-1.11-1.35-1.63c-0.93-1.05-1.87-2.2-2.85-3.16
					c-1.66-1.64-3.75-2.81-5.49-4.46c-0.98-0.93-1.88-2.01-2.76-3.02c-0.8-0.93-1.58-2.54-2-3.71c-0.22-0.61-0.14-1.28-0.46-1.8
					c0.33-0.92,1.54-0.67,2.37-0.83c2.91-0.55,6.12-0.26,10.18,0.73C203.06-948.5,200.8-950.32,200.1-951.07z"/>
				<path class="st4" d="M161.66-1001.41c0.17,0.42,0.13,0.81,0.36,1.17c-0.26,1.24-0.77,1.98-1.6,2.33
					c-0.05,0.03-0.09,0.06-0.14,0.09c-0.21-0.9-0.43-1.79-0.64-2.69c-0.35-0.83-0.95-1.52-1.18-2.44c-0.04-0.01-0.08-0.02-0.12-0.02
					c0.01-0.04,0.02-0.08,0.02-0.12c0.67,0,1.29,0.02,2.14,0.22C160.85-1002.37,161.43-1001.96,161.66-1001.41z"/>
				<path class="st4" d="M199-918.36c2.59,0.56,4.48,3.03,3.85,5.95c-0.63,2.93-3.37,4.4-5.95,3.85c-2.59-0.56-4.48-3.03-3.85-5.95
					C193.67-917.44,196.41-918.92,199-918.36z M198.78-917.35c-2.13-0.46-4.16,0.84-4.64,3.07c-0.48,2.22,0.84,4.24,2.97,4.7
					c2.1,0.45,4.16-0.84,4.64-3.07C202.22-914.87,200.88-916.89,198.78-917.35z M197.72-913.12l-0.88-0.19l-0.52,2.42l-0.94-0.2
					l1.2-5.59l2.18,0.47c1.39,0.3,2,0.92,1.76,2.06c-0.22,1.02-0.96,1.3-1.84,1.2l1.08,2.8l-1.1-0.24L197.72-913.12z M198.02-913.87
					c0.71,0.15,1.33,0.22,1.5-0.57c0.14-0.65-0.52-0.9-1.08-1.02l-1.08-0.23l-0.35,1.61L198.02-913.87z"/>
			</g>
		</g>
		<g>
			<path class="st1" d="M881.5-1351.9c-30.01-5.05-55.8-0.46-57.6,10.26l-1.96,11.64c-1.8,10.72,21.06,23.5,51.07,28.55
				s55.8,0.46,57.6-10.26l1.96-11.64C934.38-1334.08,911.51-1346.85,881.5-1351.9z M871.71-1293.69
				c-15.65-2.63-29.77-7.33-40.01-13.04c-4.74-2.64-8.99-5.7-12.13-9.17l-4.16,24.72c-1.8,10.72,21.06,23.5,51.07,28.55
				s55.8,0.46,57.6-10.26l4.16-24.72c-4.09,2.23-9.11,3.75-14.46,4.7C902.24-1290.87,887.36-1291.05,871.71-1293.69z
				 M809.54-1256.26c-1.8,10.72,21.06,23.5,51.07,28.55s55.8,0.46,57.6-10.26l3.51-20.84c-4.09,2.23-9.11,3.75-14.46,4.7
				c-11.54,2.05-26.43,1.86-42.07-0.77s-29.77-7.33-40.01-13.04c-4.74-2.64-8.99-5.7-12.13-9.17L809.54-1256.26z"/>
			<path class="st1" d="M292.92-1277.95c-1.73,0.76-2.86,2.48-2.89,4.37c-0.03,1.88,1.03,3.62,2.74,4.46l43.91,21.19
				c2.99,1.45,6.48,1.51,9.51,0.16l44.6-19.71c1.73-0.76,2.86-2.46,2.89-4.37c0.03-1.9-1.03-3.64-2.74-4.46l-43.91-21.19
				c-2.99-1.45-6.48-1.51-9.51-0.16L292.92-1277.95z M379.82-1255.55l-31.01,13.7c-4.77,2.11-10.24,2.02-14.94-0.25l-30.53-14.73
				l-10.85,4.8c-1.73,0.76-2.86,2.48-2.89,4.37c-0.03,1.88,1.03,3.62,2.74,4.46l43.91,21.19c2.99,1.45,6.48,1.51,9.51,0.16
				l44.6-19.71c1.73-0.76,2.86-2.46,2.89-4.37c0.03-1.9-1.03-3.64-2.74-4.46L379.82-1255.55L379.82-1255.55z M348.38-1215.95
				c-4.77,2.11-10.24,2.02-14.94-0.25l-30.53-14.73l-10.85,4.8c-1.73,0.76-2.86,2.48-2.89,4.37c-0.03,1.88,1.03,3.62,2.74,4.46
				l43.91,21.19c2.99,1.45,6.48,1.51,9.51,0.16l44.6-19.71c1.73-0.76,2.86-2.46,2.89-4.37c0.03-1.9-1.03-3.64-2.74-4.46l-10.69-5.16
				L348.38-1215.95L348.38-1215.95z"/>
			<path class="st1" d="M1042.14-1326.3l3.57-24.59l14.92,19.87L1042.14-1326.3L1042.14-1326.3z M1091.81-1380.76l9.35,68.88
				l-36.65,34.66l-48.78-12.86l-24.79-64.94l45.82-30.92L1091.81-1380.76z M1039.83-1373.94l-13.47,78.99l11.82-3.02l2.31-17.49
				l26.84-6.85l10.41,14.25l11.79-3.01L1039.83-1373.94z"/>
			<path class="st1" d="M1194.94-1457.32c-6.28,2.38-11.28,7.77-12.86,14.81c-1.57,7.04,0.66,14.05,5.33,18.88
				c-6.28,2.38-11.28,7.77-12.86,14.81c-2.49,11.15,4.65,22.19,15.75,24.67c11.22,2.51,22.51-4.51,25.03-15.79l4.15-18.56
				c2.85,4.05,7.16,7.1,12.38,8.26l0.44,0.1c11.13,2.49,22.16-4.52,24.65-15.64c1.57-7.04-0.66-14.05-5.33-18.88
				c6.28-2.38,11.28-7.77,12.86-14.81c2.49-11.13-4.52-22.16-15.64-24.65l-34.57-7.73c-11.13-2.49-22.16,4.52-24.65,15.64
				C1188.04-1469.15,1190.27-1462.14,1194.94-1457.32z M1213.19-1421.33l-13.98-3.13c-0.03-0.01-0.06-0.01-0.09-0.02
				c-7.43-1.71-12.1-9.1-10.43-16.55c1.67-7.48,9.09-12.19,16.57-10.52l13.98,3.13L1213.19-1421.33z M1239.39-1443.92l0.44,0.1
				c7.48,1.67,12.19,9.09,10.52,16.57c-1.67,7.48-9.09,12.19-16.57,10.52l-0.44-0.1c-7.48-1.67-12.19-9.09-10.52-16.57
				C1224.48-1440.88,1231.9-1445.59,1239.39-1443.92z M1211.71-1414.73l-2.98,13.33c-1.69,7.57-9.32,12.37-16.95,10.66
				c-7.51-1.68-12.29-9.14-10.63-16.6c1.67-7.45,9.04-12.15,16.49-10.54c0.03,0.01,0.06,0.01,0.09,0.02L1211.71-1414.73z
				 M1226.77-1482.11l-6.06,27.09l-13.98-3.13c-7.48-1.67-12.19-9.09-10.52-16.57s9.09-12.19,16.57-10.52L1226.77-1482.11z
				 M1233.37-1480.64l13.98,3.13c7.48,1.67,12.19,9.09,10.52,16.57c-1.67,7.48-9.09,12.19-16.57,10.52l-13.98-3.13L1233.37-1480.64z
				"/>
			<path class="st1" d="M707.68-1317.91c5.28,2.77,7.32,9.29,4.55,14.57l-47.81,91.21c-2.77,5.28-9.29,7.31-14.57,4.55l-91.64-48.03
				c-5.28-2.77-7.32-9.29-4.55-14.57l32.93-62.84l23.8,12.49c-0.54,5.76,3.3,13.27,11.67,13.99l13.71,43.91
				c-6.96,5.73-6.01,16.92,2.23,21.25c6.28,3.29,14.04,0.87,17.33-5.41c3.24-6.16,1.06-16.97-9.37-18.62l-13.58-43.5l21.71,11.36
				c-1.23,13.89,17.65,19.5,24.16,7.09c6.32-12.04-8.08-24.31-18.98-16.29l-23.27-12.19c0.32-10.64-11.72-17.04-20.36-10.76
				l-24.14-12.65l9.99-19.04c2.77-5.28,9.29-7.31,14.57-4.55L707.68-1317.91L707.68-1317.91z"/>
			<path class="st1" d="M216.86-1481.45c-3.29,6.73-8.88,12.09-15.71,15.34l-0.1,0.06l-32.51,15.29l-16.05,7.62l-9.76,4.65
				c-1.08,0.3-2.43,0.68-3.67,0.43c-1.24-0.26-2.32-1.14-3.2-1.84l-7.13-8.13l-11.72-13.34l-23.65-26.75l-0.13-0.14l-0.06-0.07
				c-4.99-5.68-8-12.85-8.58-20.37c-0.57-7.55,1.32-15.08,5.39-21.45l0.29-0.44l28.28-44.2c0.57-0.87,1.39-1.53,2.36-1.89
				c0.73-0.28,1.5-0.38,2.27-0.3c0.77,0.08,1.51,0.34,2.15,0.75c0.66,0.42,1.2,0.98,1.61,1.65c0.39,0.66,0.62,1.41,0.68,2.18
				l4.6,40.58l50.29,10.37l20.24-35.45c0.36-0.69,0.87-1.28,1.49-1.74c0.64-0.45,1.37-0.75,2.13-0.88c0.77-0.12,1.53-0.07,2.28,0.16
				c0.75,0.24,1.41,0.64,1.96,1.18c0.76,0.72,1.26,1.65,1.43,2.67l8.51,51.78l0.09,0.51
				C221.85-1495.77,220.6-1488.11,216.86-1481.45z"/>
			<path class="st1" d="M745.48-1461.92c1.66,1.64,1.66,4.28,0,5.92c-46.74,46.57,28.54-28.21-49.99,50.03
				c-37.4-37.28-22.71-22.62-50.19-50.01c-1.64-1.66-1.64-4.31,0-5.94c0,0,15.94-15.9,50.19-50.03
				C710.42-1497.09,730.39-1476.97,745.48-1461.92L745.48-1461.92z M711.23-1458.96l-15.73-15.67l-15.73,15.67l15.73,15.67
				L711.23-1458.96z"/>
			<path class="st1" d="M325.73-1373.76c0,20.32-16.46,36.78-36.78,36.78s-36.78-16.46-36.78-36.78s16.46-36.78,36.78-36.78
				S325.73-1394.08,325.73-1373.76z M308.78-1389.25c2.28-0.08,2.93-2.29,2.9-3.43c-0.09-2.68-2.92-4.37-6.65-4.25
				c-0.28,0.01-9.68-0.51-15.19,15.65c-1.49-1.23-8.57-9.66-16.4-3.83c-2.81,2.1-4.66,7.11-0.44,11.82c2.51,2.69,3.96,3.76,3.3,5.91
				c-1.36,4.42-8.24,2.4-7.56,0.21c0.2-0.65,0.52-0.66,0.93-1.94c1.15-3.76-4.02-5.6-5.13-2.02c-0.64,2.09,0.35,5.86,5.69,7.51
				c6.25,1.92,11.54-1.48,12.29-5.92c0.47-2.78-0.78-4.85-3.08-7.51l-1.87-2.08c-1.14-1.14-1.53-3.07-0.35-4.55
				c0.99-1.25,2.4-1.79,4.72-1.16c3.38,0.92,4.88,3.26,7.39,5.15c-0.18,0.59-1.49,4.8-2.7,12.16c-1.8,9.42-3.17,14.59-6.73,17.55
				c-0.72,0.52-1.74,1.28-3.29,1.33c-0.29,0.01-2.1-0.42-0.3-1.86c2.26-1.24,1.04-5.15-2.21-5.04c-1.46,0.05-3.69,1.42-3.61,3.94
				c0.09,2.6,2.51,4.55,6.17,4.43c1.95-0.07,6.32-0.86,10.62-5.97c5.91-6.93,7.04-15.16,8.63-23.99c7.67,0.91,11.46-2.65,11.51-5.29
				c0.08-3.6-4.15-3.48-4.75-0.79c-0.28,1.31,1.99,2.49,0.21,3.64c-1.26,0.82-3.52,1.39-6.7,0.92c1.53-8.43,2.83-16.69,8.73-16.89
				c0.4-0.02,1.87,0.02,1.91,0.99c0.02,0.8-1.01,1.43-0.97,2.8C305.9-1390.21,307.08-1389.19,308.78-1389.25L308.78-1389.25z"/>
			<path class="st1" d="M1016.16-1530.95v112h-112v-112H1016.16z M964.4-1443.39v-35.79h-10.35v35.64c0,5.26-2.16,6.6-5.56,6.6
				c-3.57,0-5.04-2.47-6.66-5.38l-8.43,5.16c2.46,5.26,7.25,9.59,15.54,9.59C958.1-1427.58,964.4-1432.53,964.4-1443.39
				L964.4-1443.39z M989.7-1427.72c9.94,0,17.36-5.18,17.36-14.6c0-8.77-5.01-12.68-13.92-16.49l-2.62-1.12
				c-4.51-1.97-6.45-3.24-6.45-6.38c0-2.54,1.94-4.48,5.01-4.48c3.01,0,4.96,1.27,6.75,4.48l8.17-5.23
				c-3.44-6.08-8.22-8.39-14.9-8.39c-9.34,0-15.34,5.98-15.34,13.85c0,8.54,5.01,12.6,12.58,15.82l2.62,1.12
				c4.81,2.12,7.65,3.39,7.65,6.97c0,3.01-2.79,5.18-7.12,5.18c-5.16,0-8.1-2.71-10.34-6.38l-8.54,4.93
				C973.66-1432.35,979.96-1427.72,989.7-1427.72L989.7-1427.72z"/>
			<path class="st1" d="M509.75-1539.47c-0.21-0.11-0.59-0.08-0.65-0.32c-0.04-0.08,0.04-0.17,0.11-0.21
				c0.3-0.17,0.72-0.11,1.05,0.02c0.25,0.11,0.65,0.29,0.61,0.55c-0.02,0.21-0.34,0.29-0.55,0.29
				C510.1-1539.15,509.94-1539.37,509.75-1539.47L509.75-1539.47z M505.05-1539.41c-0.04-0.27,0.36-0.44,0.61-0.55
				c0.32-0.13,0.74-0.19,1.05-0.02c0.08,0.04,0.15,0.13,0.11,0.21c-0.08,0.23-0.46,0.19-0.67,0.3c-0.19,0.1-0.34,0.32-0.57,0.32
				C505.39-1539.13,505.07-1539.22,505.05-1539.41z M547.42-1486.05c2.11,2.36,3.03,4.09,2.95,5.66c-0.1,1.56-1.24,2.63-2.65,3.49
				c-2.84,1.71-7.1,3.01-9.69,6.13c-2.7,3.22-6.04,5.07-9.2,5.31c-3.14,0.25-6.09-1.2-7.68-4.38v-0.02
				c-0.21-0.4-0.36-0.84-0.48-1.28c-4.09,0.23-7.66-1.01-10.49-0.78c-4.19,0.23-6.82,1.24-9.2,1.26c-0.91,2.02-2.72,3.35-4.93,3.85
				c-3.05,0.7-6.88,0-10.65-1.98c-3.52-1.87-8-1.7-11.29-2.38c-1.66-0.34-3.1-0.95-3.83-2.34c-0.7-1.39-0.57-3.29,0.42-6.04
				c0.32-0.97,0.08-2.42-0.15-3.96c-0.11-0.74-0.23-1.5-0.23-2.25c0-0.82,0.13-1.62,0.53-2.36c0.86-1.62,2.25-2.3,3.52-2.76
				c1.28-0.46,2.44-0.76,3.24-1.58c0.99-1.05,1.92-2.74,3.16-3.85c-0.5-3.28,0.04-6.74,1.18-10.15c2.4-7.22,7.47-14.13,11.07-18.42
				c3.07-4.36,3.96-7.87,4.29-12.32c0.21-6.06-4.67-25.79,14.84-25.75c15.41,0.02,14.53,16.26,14.44,25.01
				c-0.06,5.73,3.1,9.62,6.36,13.71c2.89,3.43,6.68,8.44,8.86,14.17c1.77,4.69,2.46,9.87,0.7,15.06c0.27,0.1,0.53,0.23,0.78,0.38
				c0.27,0.15,0.51,0.34,0.76,0.55c1.26,1.07,1.66,2.72,2,4.27C546.41-1488.26,546.74-1486.81,547.42-1486.05L547.42-1486.05z
				 M509.75-1542.17c0.69,0.17,1.7,0.46,2.48,0.84c-0.4-2.32,0.86-4.48,2.25-4.38c1.7,0.06,2.65,2.95,1.73,5.2
				c-0.15,0.36-0.53,0.65-0.74,0.88c1.28,0.44,2.09,0.78,2.4,0.93c1.5-1.81,2.06-4.99,0.82-7.69c-1.87-4.08-6.51-4.15-8.38,0.08
				C509.7-1544.96,509.56-1543.49,509.75-1542.17z M500.95-1538.59c1.49-1.09,1.31-0.9,1.12-1.05c-1.52-1.31-1.26-5.22,0.34-5.35
				c1.2-0.1,2.06,2.04,1.83,3.73c0.59-0.4,1.28-0.69,1.94-0.88c0.32-3.68-1.71-6.38-3.64-6.38
				C498.96-1548.52,497.98-1541.37,500.95-1538.59z M499.96-1536.96c-0.8,0.63-1.07,1.41-0.8,2.34c0.29,0.93,1.16,2,2.8,2.91
				c1.49,0.88,2.29,2.19,3.81,2.86c0.5,0.21,1.09,0.36,1.83,0.4c3.5,0.21,5.16-2.15,7.28-2.84c2.23-0.7,3.83-2.09,4.32-3.45
				c0.61-1.62-0.4-2.8-2-3.47c-2.15-0.93-3.1-0.99-4.3-1.77c-1.96-1.26-3.58-1.7-4.93-1.7c-2.74,0-4.42,1.87-5.31,2.7
				C502.55-1538.86,501.15-1537.83,499.96-1536.96L499.96-1536.96z M500.58-1473.34c0.4-3.9-6-9.33-7.81-13.12l-3.73-6.78
				c-1.3-1.75-2.63-2.82-4.17-3.05c-1.47-0.23-2.4,0.27-3.37,1.31c-0.91,0.97-1.68,2.34-2.72,3.43c-1.49,1.24-1.77,1.18-3.73,1.89
				c-1.2,0.42-2.15,0.88-2.82,2.15c-0.51,0.95-0.4,2.32-0.17,3.81c0.23,1.5,0.57,3.1,0.11,4.55v0.04c-0.95,2.61-0.95,4.13-0.5,5.03
				c1.5,2.93,8.88,1.16,14.57,4.17C492.22-1466.79,500.06-1466.66,500.58-1473.34L500.58-1473.34z M500.33-1478.28
				c7.16,4.89,15.66,2.99,21.77-1.37c0.61-2.09,1.2-4.06,1.3-5.52c0.15-2.89,0.3-5.47,0.84-7.6c0.59-2.4,1.77-4.4,4.08-5.2
				c0.44-4.02,3.56-4.02,7.29-2.38c3.6,1.62,4.95,3.05,4.34,4.97c0.19,0,0.38-0.02,0.8,0c0.99-3.22-2.72-5.33-5.85-6.63
				c0.55-2.29,0.46-4.59-0.08-6.8c-1.14-4.82-4.3-9.1-6.7-11.24c-0.44-0.02-0.4,0.36,0.5,1.24c2.21,2.04,7.07,9.37,4.44,16.17
				c-0.74-0.19-1.45-0.29-2.08-0.27c-1.01-5.54-3.33-10.13-4.49-12.3c-2.19-4.08-5.62-12.44-7.08-18.23
				c-0.86,1.22-2.36,2.27-4.25,2.86c-0.9,0.29-1.85,1.05-3.03,1.71c-2.65,1.52-5.71,1.68-8.08-0.23c-0.86-0.69-1.52-1.45-2.4-1.96
				c-0.3-0.17-0.97-0.63-1.18-0.78c-0.38,7.2-5.2,16.25-7.48,21.46c-1.58,3.75-2.51,7.77-2.63,11.71
				c-4.15-5.54-1.12-12.63,0.5-15.69c1.81-3.35,2.1-4.29,1.66-3.96c-1.64,2.67-4.19,6.91-5.18,11.27c-0.51,2.27-0.61,4.57,0.06,6.7
				s2.11,4.09,4.69,5.69c0,0,4.72,2.72,7.29,6.19c1.41,1.9,1.85,3.56,1.41,4.74c-0.48,1.28-1.83,1.69-3.18,1.69
				C498.5-1480.87,499.55-1479.53,500.33-1478.28L500.33-1478.28z M549.35-1480.47c0.06-0.97-0.59-2.48-2.61-4.69
				c-1.9-2.15-1.37-6.3-3.26-7.92c-1.31-1.14-2.59-1.03-4.3-0.97c-1.47,1.68-4.91,3.73-7.31,3.1c-2.19-0.55-3.43-3.1-3.58-5.62
				c-0.06,0.04-0.13,0.06-0.19,0.1c-1.35,0.74-2.11,2.06-2.61,4.02c-0.48,1.94-0.65,4.48-0.8,7.37c-0.13,2.25-1.18,5.03-1.89,7.73
				c-0.67,2.51-1.1,4.8-0.21,6.91c1.37,2.76,3.71,3.89,6.42,3.68s5.79-1.87,8.3-4.86C541.5-1476.68,549.18-1477.27,549.35-1480.47
				L549.35-1480.47z M500.71-1534.63c-0.67-0.53-0.59-1.26-0.32-1.24c0.46,0.06,0.53,0.67,0.82,0.93c0.38,0.36,0.88,0.84,1.47,1.31
				c1.18,0.93,2.76,1.85,4.74,1.85s4.29-1.14,5.69-1.94c0.8-0.46,1.81-1.26,2.65-1.87c0.65-0.48,0.61-1.03,1.14-0.97
				s0.15,0.61-0.59,1.26c-0.74,0.65-1.89,1.49-2.82,1.98c-1.77,0.93-3.85,2.06-6.06,2.06c-2.19,0-3.94-1.03-5.2-2.02
				C501.6-1533.78,501.09-1534.27,500.71-1534.63L500.71-1534.63z"/>
			<path class="st1" d="M62.79-1277.97l53.36-10.65l-10.65-53.36l-53.36,10.65L62.79-1277.97z M120.82-1289.55l53.36-10.65
				l-10.65-53.36l-53.36,10.65L120.82-1289.55z M74.38-1219.94l53.36-10.65l-10.65-53.36l-53.36,10.65L74.38-1219.94z
				 M132.41-1231.52l53.36-10.65l-10.65-53.36l-53.36,10.65L132.41-1231.52z"/>
			<path class="st1" d="M427.86-1321.88l43.5-12.23c2.83-0.81,5.02-3.07,5.74-5.91l11.14-43.76c0.73-2.85-0.12-5.89-2.22-7.93
				l-32.35-31.56c-2.04-1.96-5.22-2.77-7.97-2.03l-43.46,12.24c-2.82,0.79-5.02,3.07-5.74,5.91l-11.14,43.76
				c-0.73,2.85,0.12,5.89,2.22,7.93l8.48,8.26c4.2,3.6,5.92,4.04,8.12,4.6c7.13,1.81,12.33-1.45,14.24-8.97l11-43.22
				c0.16-0.62-0.24-1.22-0.83-1.37l-4.8-1.22c-0.62-0.16-1.23,0.19-1.39,0.81l-11,43.2c-0.85,3.35-5.14,5.77-10.07,1.52l-8.86-8.64
				c-0.32-0.28-0.44-0.75-0.34-1.16l11.14-43.76c0.11-0.43,0.44-0.78,0.86-0.9l43.46-12.24c0.4-0.12,0.87,0,1.17,0.3l32.34,31.52
				c0.31,0.32,0.44,0.77,0.33,1.2l-11.14,43.78c-0.1,0.41-0.43,0.76-0.84,0.88l-43.5,12.23c-0.38,0.12-0.87,0-1.17-0.3l-8.26-8.25
				c-0.24-0.26-0.59-0.41-0.92-0.32c-3.08,0.86-3.64,0.91-6.39,1.15c-0.67,0.05-1.69,0.18-0.07,1.73l10.76,10.72
				c1.03,1.01,2.34,1.73,3.71,2.08C425-1321.47,426.47-1321.49,427.86-1321.88z M465.2-1357.18c-2.1,8.25-10.21,11.24-22.2,8.21
				c-16.61-4.23-18.14-12.73-16.52-19.12c0.15-0.6,0.75-0.97,1.37-0.81l4.91,1.25c0.55,0.14,0.91,0.65,0.85,1.2
				c-0.53,5.18,1.02,8.26,11.06,10.82c7.99,2.03,11.86,1.09,12.93-3.14c0.62-2.44,0.12-4.52-11.99-8.89
				c-10.11-3.67-15.95-7.6-13.84-15.9c1.95-7.66,9.56-10.58,20.38-7.82c12.16,3.09,17.1,8.84,15.56,18.08
				c-0.06,0.31-0.24,0.6-0.5,0.77c-0.26,0.17-0.58,0.22-0.89,0.15l-4.93-1.25c-0.51-0.13-0.87-0.62-0.85-1.13
				c0.15-5.56-2.3-7.98-10.08-9.96c-8.73-2.22-10.51,0.56-11.09,2.84c-0.7,2.75,0.29,3.86,11.68,8.42
				C462.29-1368.96,467.28-1365.37,465.2-1357.18L465.2-1357.18z"/>
			<path class="st1" d="M1299.41-1248.96c2.37,9.49,2.48,16.61,0,24.02c-2.39,7.19-4.93,11.99-11.81,11.99h-35.44v2h23v9.3
				c0,6.77-5.83,10.22-11.75,11.93c-8.91,2.57-16.06,2.18-23.5,0c-6.21-1.82-11.75-5.56-11.75-11.93v-22.37
				c0-6.44,5.32-11.93,11.75-11.93h23.75c7.73,0,14.5-6.73,14.5-14.71v-10.29h9.44C1294.48-1260.95,1297.71-1255.8,1299.41-1248.96
				L1299.41-1248.96z M1260.62-1200.2c0,2.46,2,4.48,4.42,4.48c2.44,0,4.42-2,4.42-4.48c0-2.46-1.98-4.46-4.42-4.46
				C1262.62-1204.66,1260.64-1202.68,1260.62-1200.2z M1239.24-1238.95c-8.19,0-15.08,7.02-15.08,14.99v11.01h-8.73
				c-6.88,0-10.88-5-12.56-11.99c-2.26-9.4-2.17-15.02,0-24.02c1.88-7.85,7.9-11.99,14.78-11.99h32.52v-3h-23v-9.3
				c0-6.79,1.8-10.46,11.75-12.22c7.06-1.25,15.62-1.32,23.5-0.02c6.38,1.08,11.75,5.84,11.75,12.22v22.39
				c0,6.55-5.21,11.93-11.75,11.93H1239.24L1239.24-1238.95z M1241.97-1274.7c0-2.46-2-4.48-4.42-4.48c-2.44,0-4.39,2-4.42,4.48
				c0,2.46,1.98,4.46,4.42,4.46C1239.99-1270.24,1241.97-1272.24,1241.97-1274.7z"/>
			<path class="st1" d="M1241.27-1648.62l-24.89,99l-42.1,6.86l-37.61-19.59l7.18-101.83L1241.27-1648.62z M1219.83-1630.69
				l-61.16-9.76l-2.64,37.35l43.05,6.87l-4.23,16.28l-14.89,1.58l-13.61-6.13l0.69-10.28l-10.86-1.73l-1.52,19.08l23.45,10.7
				l0.27,0.04l-0.23,1.45l26.51-2.95l9.67-37.93l-45.54-7.27l0.98-12.98l47.03,7.51L1219.83-1630.69z"/>
		</g>
	</g>
</pattern>
<linearGradient id="SVGID_1_" gradientUnits="userSpaceOnUse" x1="484.8333" y1="1360.8951" x2="1432.7213" y2="-280.8952">
	<stop  offset="0" style="stop-color:#0071BC"/>
	<stop  offset="1" style="stop-color:#00A99D"/>
</linearGradient>
<rect x="-1.69" class="st9" width="1920.94" height="1080"/>
<pattern  id="SVGID_2_" xlink:href="#Technos_3" patternTransform="matrix(0.3376 0 0 0.3376 -5555.8301 -6028.5151)">
</pattern>
<path class="st10" d="M-1.69,0v1080h1920.94V0H-1.69z"/>
</svg>
